<?xml version="1.0" encoding="UTF-8" standalone="no"?>
<svg width="15px" height="15px" viewBox="0 0 15 15" version="1.1" xmlns="http://www.w3.org/2000/svg" xmlns:xlink="http://www.w3.org/1999/xlink">
    <!-- Generator: Sketch 43.1 (39012) - http://www.bohemiancoding.com/sketch -->
    <title>ion-social-instagram - Ionicons</title>
    <desc>Created with Sketch.</desc>
    <defs></defs>
    <g id="Welcome" stroke="none" stroke-width="1" fill="none" fill-rule="evenodd">
        <g id="Desktop-Home" transform="translate(-881.000000, -2788.000000)" fill="#FFFFFF">
            <g id="footer" transform="translate(0.000000, 2714.000000)">
                <g id="social">
                    <g id="Group-2" transform="translate(57.000000, 57.000000)">
                        <path d="M828.375,24.5 C828.375,22.4166563 829.416656,21.375 831.5,21.375 C833.583344,21.375 834.625,22.4166563 834.625,24.5 C834.625,26.5833438 833.583344,27.625 831.5,27.625 C829.416656,27.625 828.375,26.5833438 828.375,24.5 Z M828.414062,21.4140625 C827.867185,21.9609402 827.502605,22.5729133 827.320312,23.25 L824,23.25 L824,18.875 C824,18.3281223 824.18229,17.8854184 824.546875,17.546875 C824.963544,17.1822898 825.419268,17 825.914062,17 L837.164062,17 C837.658857,17 838.08854,17.1822898 838.453125,17.546875 C838.81771,17.9114602 839,18.3541641 839,18.875 L839,23.25 L835.71875,23.25 C835.536457,22.5729133 835.171878,21.9609402 834.625,21.4140625 C833.765621,20.5546832 832.723964,20.125 831.5,20.125 C830.302077,20.125 829.273442,20.5546832 828.414062,21.4140625 Z M837.75,20.28125 L837.75,18.7578125 C837.75,18.6276035 837.697917,18.5104172 837.59375,18.40625 C837.489583,18.3020828 837.372396,18.25 837.242188,18.25 L835.757812,18.25 C835.627604,18.25 835.510417,18.3020828 835.40625,18.40625 C835.302083,18.5104172 835.25,18.6276035 835.25,18.7578125 L835.25,20.28125 C835.25,20.411459 835.302083,20.5286453 835.40625,20.6328125 C835.484375,20.7109379 835.601562,20.75 835.757812,20.75 L837.242188,20.75 C837.398438,20.75 837.515625,20.7109379 837.59375,20.6328125 C837.697917,20.5286453 837.75,20.411459 837.75,20.28125 Z M834.625,27.5859375 C835.458337,26.7526 835.875,25.7239645 835.875,24.5 L839,24.5 L839,30.125 C839,30.5937523 838.81771,31.0364563 838.453125,31.453125 C838.114582,31.8177102 837.684898,32 837.164062,32 L825.914062,32 C825.393227,32 824.950523,31.8177102 824.585938,31.453125 C824.195311,31.062498 824,30.6197941 824,30.125 L824,24.5 L827.164062,24.5 C827.164062,25.7239645 827.580725,26.7526 828.414062,27.5859375 C829.273442,28.4453168 830.302077,28.875 831.5,28.875 C832.723964,28.875 833.765621,28.4453168 834.625,27.5859375 Z" id="ion-social-instagram---Ionicons"></path>
                    </g>
                </g>
            </g>
        </g>
    </g>
</svg>