<?xml version="1.0" encoding="UTF-8" standalone="no"?>
<svg width="18px" height="18px" viewBox="0 0 18 18" version="1.1" xmlns="http://www.w3.org/2000/svg" xmlns:xlink="http://www.w3.org/1999/xlink">
    <!-- Generator: Sketch 43.1 (39012) - http://www.bohemiancoding.com/sketch -->
    <title>pinterest - FontAwesome</title>
    <desc>Created with Sketch.</desc>
    <defs></defs>
    <g id="Welcome" stroke="none" stroke-width="1" fill="none" fill-rule="evenodd">
        <g id="Desktop-Home" transform="translate(-947.000000, -2786.000000)" fill="#FFFFFF">
            <path d="M964.142857,2794.85714 C964.142857,2796.41221 963.759676,2797.84635 962.993304,2799.1596 C962.226931,2800.47285 961.187135,2801.51264 959.873884,2802.27902 C958.560633,2803.04539 957.126496,2803.42857 955.571429,2803.42857 C954.745532,2803.42857 953.934528,2803.30953 953.138393,2803.07143 C953.577383,2802.37946 953.867559,2801.76935 954.008929,2801.24107 C954.075893,2800.98809 954.276784,2800.20313 954.611607,2798.88616 C954.760417,2799.17634 955.031992,2799.42745 955.426339,2799.63951 C955.820686,2799.85156 956.244789,2799.95759 956.698661,2799.95759 C957.598963,2799.95759 958.402526,2799.70276 959.109375,2799.19308 C959.816224,2798.68341 960.363093,2797.98215 960.75,2797.08929 C961.136907,2796.19642 961.330357,2795.19197 961.330357,2794.07589 C961.330357,2793.22767 961.109005,2792.43155 960.666295,2791.6875 C960.223584,2790.94345 959.581849,2790.33706 958.741071,2789.8683 C957.900293,2789.39955 956.951642,2789.16518 955.895089,2789.16518 C955.113835,2789.16518 954.384676,2789.27306 953.707589,2789.48884 C953.030503,2789.70461 952.455732,2789.99107 951.983259,2790.34821 C951.510786,2790.70536 951.105284,2791.11644 950.766741,2791.58147 C950.428198,2792.04651 950.178944,2792.52827 950.018973,2793.02679 C949.859002,2793.5253 949.779018,2794.02381 949.779018,2794.52232 C949.779018,2795.29613 949.927826,2795.97693 950.225446,2796.56473 C950.523067,2797.15253 950.95833,2797.56547 951.53125,2797.80357 C951.754465,2797.89286 951.895833,2797.81845 951.955357,2797.58036 C951.970238,2797.52827 952,2797.41295 952.044643,2797.23438 C952.089286,2797.0558 952.119048,2796.9442 952.133929,2796.89955 C952.178572,2796.72842 952.137649,2796.56845 952.011161,2796.41964 C951.631695,2795.96577 951.441964,2795.40402 951.441964,2794.73438 C951.441964,2793.61086 951.830725,2792.64547 952.608259,2791.83817 C953.385793,2791.03087 954.403268,2790.62723 955.660714,2790.62723 C956.784232,2790.62723 957.660339,2790.93229 958.289062,2791.54241 C958.917786,2792.15253 959.232143,2792.94494 959.232143,2793.91964 C959.232143,2795.18453 958.977309,2796.25967 958.467634,2797.14509 C957.957959,2798.03051 957.305064,2798.47321 956.508929,2798.47321 C956.055057,2798.47321 955.690478,2798.31139 955.415179,2797.98772 C955.13988,2797.66406 955.054315,2797.2753 955.158482,2796.82143 C955.218006,2796.56101 955.316592,2796.21317 955.454241,2795.7779 C955.591891,2795.34263 955.703497,2794.95945 955.789062,2794.62835 C955.874628,2794.29725 955.917411,2794.01637 955.917411,2793.78571 C955.917411,2793.41369 955.816965,2793.10491 955.616071,2792.85938 C955.415178,2792.61384 955.128722,2792.49107 954.756696,2792.49107 C954.295385,2792.49107 953.904764,2792.70312 953.584821,2793.12723 C953.264879,2793.55134 953.104911,2794.07961 953.104911,2794.71205 C953.104911,2795.25521 953.197916,2795.70908 953.383929,2796.07366 L952.279018,2800.73884 C952.152529,2801.25968 952.104167,2801.91815 952.133929,2802.71429 C950.601183,2802.0372 949.362356,2800.99182 948.417411,2799.57812 C947.472466,2798.16443 947,2796.59078 947,2794.85714 C947,2793.30208 947.383181,2791.86794 948.149554,2790.55469 C948.915926,2789.24144 949.955723,2788.20164 951.268973,2787.43527 C952.582224,2786.66889 954.016361,2786.28571 955.571429,2786.28571 C957.126496,2786.28571 958.560633,2786.66889 959.873884,2787.43527 C961.187135,2788.20164 962.226931,2789.24144 962.993304,2790.55469 C963.759676,2791.86794 964.142857,2793.30208 964.142857,2794.85714 Z" id="pinterest---FontAwesome"></path>
        </g>
    </g>
</svg>