<?xml version="1.0" encoding="UTF-8" standalone="no"?>
<svg width="18px" height="15px" viewBox="0 0 18 15" version="1.1" xmlns="http://www.w3.org/2000/svg" xmlns:xlink="http://www.w3.org/1999/xlink">
    <!-- Generator: Sketch 43.1 (39012) - http://www.bohemiancoding.com/sketch -->
    <title>twitter - FontAwesome</title>
    <desc>Created with Sketch.</desc>
    <defs></defs>
    <g id="Welcome" stroke="none" stroke-width="1" fill="none" fill-rule="evenodd">
        <g id="Desktop-Home" transform="translate(-813.000000, -2788.000000)" fill="#FFFFFF">
            <g id="footer" transform="translate(0.000000, 2714.000000)">
                <g id="social">
                    <g id="Group-2" transform="translate(57.000000, 57.000000)">
                        <path d="M774.080357,19.4107143 C773.581843,20.1398846 772.97917,20.7611581 772.272321,21.2745536 C772.279762,21.3787208 772.283482,21.5349692 772.283482,21.7433036 C772.283482,22.7105703 772.142115,23.6759624 771.859375,24.6395089 C771.576635,25.6030554 771.146952,26.5275253 770.570313,27.4129464 C769.993673,28.2983675 769.307296,29.0814698 768.511161,29.7622768 C767.715026,30.4430838 766.755214,30.9862331 765.631696,31.3917411 C764.508179,31.7972491 763.306554,32 762.026786,32 C760.010407,32 758.165187,31.4605709 756.491071,30.3816964 C756.751489,30.4114585 757.041665,30.4263393 757.361607,30.4263393 C759.035723,30.4263393 760.527523,29.9129516 761.837054,28.8861607 C761.0558,28.8712797 760.356402,28.6313267 759.738839,28.1662946 C759.121277,27.7012626 758.697174,27.1078905 758.466518,26.3861607 C758.712055,26.4233633 758.938987,26.4419643 759.147321,26.4419643 C759.467264,26.4419643 759.783481,26.4010421 760.095982,26.3191964 C759.262645,26.1480646 758.572547,25.7332622 758.02567,25.0747768 C757.478792,24.4162914 757.205357,23.6517901 757.205357,22.78125 L757.205357,22.7366071 C757.711312,23.0193467 758.254461,23.1718749 758.834821,23.1941964 C758.343748,22.8668138 757.953126,22.4389907 757.662946,21.9107143 C757.372766,21.3824378 757.227679,20.8095269 757.227679,20.1919643 C757.227679,19.5371991 757.391367,18.9308064 757.71875,18.3727679 C758.619052,19.4814044 759.714651,20.3686723 761.00558,21.0345982 C762.296509,21.7005242 763.678564,22.0706842 765.151786,22.1450893 C765.092262,21.8623498 765.0625,21.5870549 765.0625,21.3191964 C765.0625,20.3221676 765.414059,19.4721017 766.117188,18.7689732 C766.820316,18.0658447 767.670382,17.7142857 768.667411,17.7142857 C769.709083,17.7142857 770.58705,18.0937462 771.301339,18.8526786 C772.112355,18.6964278 772.874996,18.4062521 773.589286,17.9821429 C773.313987,18.8378019 772.785718,19.4999977 772.004464,19.96875 C772.696432,19.8943449 773.388389,19.7083348 774.080357,19.4107143 Z" id="twitter---FontAwesome"></path>
                    </g>
                </g>
            </g>
        </g>
    </g>
</svg>