
<svg width="83px" height="49px" viewBox="0 0 83 49" version="1.1" xmlns="http://www.w3.org/2000/svg" xmlns:xlink="http://www.w3.org/1999/xlink">
    <!-- Generator: Sketch 43.1 (39012) - http://www.bohemiancoding.com/sketch -->
    <desc>Created with Sketch.</desc>
    <defs>
        <path d="M22.0562072,0.188102564 C22.34527,0.0647948718 22.6325362,0 22.8939323,0 C23.1608977,0 23.400915,0.0676666667 23.5882938,0.21 C23.8529237,0.412641026 24.0090427,0.759769231 23.9932332,1.27633333 C23.9556856,2.39471795 23.1750903,3.46194872 22.5590579,4.34233333 C22.0836942,5.02564103 21.5596444,5.67035897 21.0357743,6.31651282 C20.7937808,6.61033333 20.3317115,7.007 20.2284107,7.39020513 C20.0426488,8.071 24.7355622,21.0687436 24.9915687,21.8904359 C25.3289583,22.9784872 24.8941964,23.6574872 23.8119626,24.1187692 C23.2695882,24.3519231 23.2638392,24.2878462 22.9968739,23.7515385 C22.6654128,23.0858205 16.5248501,12.4066923 15.2149951,13.216359 C14.1963587,13.8438462 10.5678934,17.6898974 8.3852808,19.9690256 C8.65745613,20.6480256 8.80477214,21.4278974 8.99736089,21.9864615 C9.33349292,22.9698718 9.71346045,23.9387436 10.0226444,24.9316667 C10.1498392,25.3389231 9.98491716,25.5936154 9.58015742,25.7648462 C9.50847561,25.7960769 9.46176565,25.8133077 9.42709249,25.8134872 L9.42547561,25.8134872 C9.36295613,25.8129487 9.33906219,25.7565897 9.27456652,25.6284359 C8.94867474,24.9768974 8.53762712,24.3560513 8.14382626,23.7431026 C7.86841716,23.3083846 7.58312712,22.8779744 7.2698111,22.4674872 C7.01290634,22.1304103 6.83972019,21.9157436 6.48957517,21.8030256 C6.1124821,22.0298974 5.65975483,22.1253846 5.32110764,21.7881282 C5.01803188,21.4819231 5.10534357,21.0974615 5.30152539,20.7420769 C5.28427864,20.7024103 5.26200158,20.6614872 5.23002323,20.615 C4.9625189,20.244359 4.29133275,20.0278974 3.89573535,19.8505641 C2.92273102,19.4158462 1.89601024,18.9820256 0.866594654,18.7034615 C0.652267814,18.6435128 0.624960455,18.6445897 0.673287294,18.4270513 C0.76778513,17.996641 0.986423658,17.7904103 1.40896911,17.835641 C2.48096262,17.9526667 3.54307517,18.1486667 4.61237387,18.2962051 C5.24152106,18.3848718 5.86707517,18.4710256 6.49909682,18.5298974 C6.6546769,18.5460513 6.83397128,18.5331282 6.98991067,18.5596923 C8.91633708,16.1105897 11.9573349,12.0744615 12.4046726,10.9013333 C12.9490232,9.45915385 1.2887808,5.47076923 0.569627121,5.27351282 C-0.00634257568,5.11233333 -0.0708382467,5.11969231 0.0524041776,4.543 C0.301763485,3.39302564 0.887254827,2.83697436 2.01619855,2.96082051 C2.87476348,3.05576923 16.5390427,5.18484615 17.1730405,4.87307692 C17.3273631,4.79805128 17.4432397,4.61694872 17.5549843,4.4954359 C18.918376,3.01915385 20.1301401,1.00405128 22.0562072,0.188102564 Z" id="path-1"></path>
    </defs>
    <g id="Welcome" stroke="none" stroke-width="1" fill="none" fill-rule="evenodd">
        <g id="Desktop-Services" transform="translate(-472.000000, -157.000000)">
            <g id="Group-7" transform="translate(472.000000, 157.000000)">
                <g id="Page-1" transform="translate(0.898268, 0.000000)">
                    <mask id="mask-2" fill="white">
                        <use xlink:href="#path-1"></use>
                    </mask>
                    <use id="Clip-2" fill="#FFFFFF" xlink:href="#path-1"></use>
                </g>
                <path d="M21.2939993,35.7122007 C22.2635902,33.067816 23.0783196,32.9735853 23.7376486,35.4295083 C23.5111053,36.2187135 23.1223348,36.9194314 22.5711573,37.5305853 C22.0819603,38.150893 21.4944928,38.6997648 20.8493564,39.192816 C20.7751594,38.0250724 21.0065534,36.8269955 21.2939993,35.7122007 M82.8178391,48.4812776 C80.3537092,42.3555596 71.6148153,42.0021494 66.0362092,41.8607135 C62.3220491,41.7670212 58.5830967,42.0150724 54.8786378,42.2625853 C47.779982,42.7375083 40.9224214,44.8592263 33.7763369,44.9744571 C29.5052504,45.0437391 22.1910101,45.4285596 20.9945166,40.2079955 C22.0699235,39.389175 22.9825642,38.4691237 23.6257244,37.4656109 C24.3200859,36.3822263 25.420824,34.0740212 24.2591833,32.9134571 C23.3495967,32.0050724 21.5676118,33.2736878 21.136443,34.103816 C20.1727807,35.9577391 19.8283846,37.926175 20.1346941,39.7014827 C18.8880772,40.5343032 17.4980967,41.2000212 16.211417,41.7925083 C11.8145729,43.8174827 5.53819192,44.8653289 2.32059451,40.3510468 C-1.07827345,35.5824314 0.789585856,26.2842776 5.38746248,23.0150981 C5.80102525,22.7205596 5.40488889,22.0318673 4.98665512,22.3294571 C0.35428499,25.6234058 -0.582608949,32.0223032 0.296616159,37.3135853 C1.12823304,42.3196622 5.38297114,44.5442263 10.1091205,44.2719442 C13.2126378,44.0929955 17.314311,42.7610212 20.3696811,40.6599442 C20.951759,42.4602007 22.2772439,43.9779442 24.3906898,44.8423545 C26.8796118,45.8604058 29.8731811,45.7780212 32.5067244,45.7737135 C36.5503694,45.766175 40.4761616,45.290534 44.4560296,44.6104571 C51.3978478,43.4244058 58.2879257,42.6109699 65.3350209,42.6443545 C70.5828846,42.6693032 79.7042612,42.8565083 82.0519755,48.6919955 C82.2402525,49.160816 83.008811,48.9562007 82.8178391,48.4812776" id="Fill-1" fill="#FFFFFF"></path>
            </g>
        </g>
    </g>
</svg>