<?xml version="1.0" encoding="UTF-8" standalone="no"?>
<svg width="10px" height="20px" viewBox="0 0 10 20" version="1.1" xmlns="http://www.w3.org/2000/svg" xmlns:xlink="http://www.w3.org/1999/xlink">
    <!-- Generator: Sketch 43.1 (39012) - http://www.bohemiancoding.com/sketch -->
    <title>facebook - FontAwesome</title>
    <desc>Created with Sketch.</desc>
    <defs></defs>
    <g id="Welcome" stroke="none" stroke-width="1" fill="none" fill-rule="evenodd">
        <g id="Desktop-Home" transform="translate(-752.000000, -2785.000000)" fill="#FFFFFF">
            <g id="footer" transform="translate(0.000000, 2714.000000)">
                <g id="social">
                    <g id="Group-2" transform="translate(57.000000, 57.000000)">
                        <path d="M704.703125,14.9910714 L704.703125,17.9375 L702.950893,17.9375 C702.311009,17.9375 701.879465,18.0714272 701.65625,18.3392857 C701.433035,18.6071442 701.321429,19.0089259 701.321429,19.5446429 L701.321429,21.6540179 L704.591518,21.6540179 L704.15625,24.9575893 L701.321429,24.9575893 L701.321429,33.4285714 L697.90625,33.4285714 L697.90625,24.9575893 L695.060268,24.9575893 L695.060268,21.6540179 L697.90625,21.6540179 L697.90625,19.2209821 C697.90625,17.8370467 698.293151,16.7637687 699.066964,16.0011161 C699.840778,15.2384634 700.871273,14.8571429 702.158482,14.8571429 C703.252238,14.8571429 704.100443,14.9017853 704.703125,14.9910714 Z" id="facebook---FontAwesome"></path>
                    </g>
                </g>
            </g>
        </g>
    </g>
</svg>