
<svg width="494px" height="119px" viewBox="0 0 494 119" version="1.1" xmlns="http://www.w3.org/2000/svg" xmlns:xlink="http://www.w3.org/1999/xlink">
    <!-- Generator: Sketch 43.1 (39012) - http://www.bohemiancoding.com/sketch -->
    <desc>Created with Sketch.</desc>
    <defs>
        <path d="M53.4971418,0.456820513 C54.198261,0.157358974 54.8950228,0 55.5290368,0 C56.1765591,0 56.758719,0.164333333 57.2132047,0.51 C57.8550621,1.00212821 58.2337276,1.84515385 58.1953817,3.09966667 C58.1043103,5.81574359 56.2109832,8.40758974 54.7168017,10.5456667 C53.5638113,12.2051282 52.292733,13.7708718 51.0220905,15.3401026 C50.4351373,16.0536667 49.3143923,17.017 49.0638369,17.947641 C48.613273,19.601 59.9958943,51.1669487 60.6168359,53.1624872 C61.4351715,55.8048974 60.3806602,57.4538974 57.7557115,58.5741538 C56.4401869,59.1403846 56.4262429,58.9847692 55.7787207,57.6823077 C54.9747648,56.0655641 40.0808824,30.1305385 36.9038403,32.0968718 C34.4331466,33.6207692 25.6323349,42.9611795 20.3384268,48.4962051 C20.9985857,50.1452051 21.3558995,52.0391795 21.8230218,53.3956923 C22.6383072,55.7839744 23.5599152,58.1369487 24.3098383,60.5483333 C24.6183482,61.5373846 24.2183311,62.1559231 23.2365898,62.5717692 C23.0627262,62.6476154 22.9494316,62.6894615 22.8653321,62.6898974 L22.8614104,62.6898974 C22.7097699,62.6885897 22.6518154,62.5517179 22.4953817,62.2404872 C21.704934,60.6581795 20.7079415,59.1504103 19.7527809,57.6618205 C19.0847785,56.6060769 18.3928099,55.5607949 17.6328646,54.5638974 C17.0097443,53.7452821 16.5896828,53.2239487 15.740409,52.9502051 C14.825773,53.5011795 13.7276869,53.7330769 12.906301,52.9140256 C12.1711934,52.1703846 12.3829671,51.2366923 12.8588044,50.3736154 C12.8169726,50.2772821 12.7629398,50.1778974 12.6853766,50.065 C12.0365471,49.1648718 10.4085908,48.6391795 9.44907273,48.2085128 C7.08905906,47.1527692 4.5987566,46.0992051 2.10191791,45.4226923 C1.58207,45.2771026 1.51583623,45.2797179 1.63305257,44.7514103 C1.86225626,43.7061282 2.39256214,43.2052821 3.41744252,43.3151282 C6.01755359,43.5993333 8.5936985,44.0753333 11.1872733,44.433641 C12.7132645,44.6489744 14.2305406,44.8582051 15.7635037,45.0011795 C16.1408619,45.0404103 16.5757388,45.0090256 16.9539685,45.0735385 C21.6264993,39.1257179 29.0024135,29.3236923 30.0874271,26.4746667 C31.407745,22.9722308 3.1259268,13.2861538 1.38162571,12.8071026 C-0.015383863,12.4156667 -0.171817561,12.4335385 0.127105884,11.033 C0.731924749,8.24020513 2.15202899,6.88979487 4.89027232,7.1905641 C6.97271422,7.42115385 40.1153065,12.5917692 41.6530628,11.8346154 C42.0273708,11.6524103 42.3084285,11.2125897 42.5794641,10.9174872 C45.8863591,7.33223077 48.8254825,2.43841026 53.4971418,0.456820513 Z" id="path-1"></path>
    </defs>
    <g id="Welcome" stroke="none" stroke-width="1" fill="none" fill-rule="evenodd">
        <g id="UI-Guide" transform="translate(-793.000000, -3423.000000)">
            <g id="Group-5" transform="translate(793.000000, 3423.000000)">
                <g id="Group-3">
                    <g id="Group-7">
                        <g id="Page-1" transform="translate(2.178742, 0.000000)">
                            <mask id="mask-2" fill="white">
                                <use xlink:href="#path-1"></use>
                            </mask>
                            <use id="Clip-2" fill="#ffffff" xlink:href="#path-1"></use>
                        </g>
                        <path d="M51.648413,86.7296302 C54.0001474,80.3075532 55.9762667,80.0787071 57.5754635,86.0430917 C57.0259847,87.9597327 56.0830251,89.6614763 54.7461488,91.1457071 C53.5596057,92.6521686 52.1347082,93.985143 50.5699355,95.1825532 C50.3899714,92.3466045 50.9512154,89.4369891 51.648413,86.7296302 M200.87396,117.740246 C194.897234,102.863502 173.701121,102.00522 160.17026,101.661733 C151.161596,101.434194 142.092799,102.036605 133.107666,102.637707 C115.889937,103.791092 99.2569827,108.943835 81.9242161,109.223681 C71.5647322,109.391938 53.824105,110.326502 50.9220203,97.6479891 C53.5304106,95.659425 55.7440127,93.4250148 57.3039922,90.9879122 C58.98816,88.3568353 61.6579909,82.7511943 58.8404413,79.9326814 C56.6342469,77.7266045 52.3120579,80.8075276 51.2662616,82.8235532 C48.9289068,87.3259378 48.093577,92.106425 48.8365281,96.4178866 C45.8128696,98.4404507 42.4414837,100.057194 39.3206532,101.496092 C28.6561454,106.413887 13.4328371,108.958656 5.62858213,97.9953994 C-2.61534303,86.4144763 1.91513373,63.8332455 13.0672441,55.8938096 C14.0703371,55.178502 13.1095117,53.5059635 12.0950893,54.2286814 C0.85931521,62.2282712 -1.41311302,77.7684507 0.719439954,90.6187071 C2.73651958,102.776322 13.0563504,108.178835 24.5195852,107.517579 C32.0471399,107.082989 41.995713,103.848194 49.4064871,98.7455789 C50.8183121,103.11763 54.0332643,106.803579 59.1594092,108.902861 C65.1962684,111.375271 72.457145,111.175194 78.8447817,111.164733 C88.6526081,111.146425 98.1745835,109.991297 107.827719,108.339681 C124.66504,105.459271 141.376865,103.483784 158.469534,103.564861 C171.198182,103.625451 193.322003,104.080092 199.016364,118.251989 C199.473028,119.390553 201.33716,118.89363 200.87396,117.740246" id="Fill-1" fill="#ffffff"></path>
                    </g>
                    <path d="M457.294328,38.4496679 C457.294328,47.5563993 464.445765,54.8923022 473.111173,54.8923022 C481.85878,54.8923022 488.92667,47.5563993 488.92667,38.4496679 C488.92667,29.2591903 481.85878,21.8375149 473.111173,21.8375149 C464.612188,21.8375149 457.631215,28.9228545 457.294328,37.7769963 L457.294328,38.4496679 Z M453.172853,39.2945597 L453.172853,38.4496679 L453.172853,37.6068022 L453.172853,2.02274254 C453.172853,0.925936567 454.097271,0 455.192154,0 C456.36991,0 457.294328,0.925936567 457.294328,2.02274254 L457.294328,25.8019552 C460.911821,20.9115784 466.630814,17.7062575 473.111173,17.7062575 C484.212947,17.7062575 493.046797,26.9825075 493.046797,38.4496679 C493.046797,49.7493358 484.212947,59.0255858 473.111173,59.0255858 C466.630814,59.0255858 460.911821,55.9060373 457.294328,51.0143097 L457.294328,57.0014925 C457.294328,58.0989739 456.36991,59.0255858 455.192154,59.0255858 C454.097271,59.0255858 453.172853,58.0989739 453.172853,57.0014925 L453.172853,39.2945597 Z M441.480853,34.571 C441.480853,27.5727836 435.844733,21.8375149 428.778866,21.8375149 C421.795198,21.8375149 416.1611,27.5727836 415.991983,34.571 L415.991983,57.0014925 L415.991983,57.3398545 C415.907087,57.677541 415.823539,58.0132015 415.571548,58.265791 C415.234661,58.7709701 414.645783,59.0255858 414.056904,59.0255858 L413.552921,59.0255858 C412.962021,58.8560672 412.458038,58.4346343 412.206047,57.9301306 C412.121151,57.8443582 412.121151,57.7612873 412.121151,57.677541 C412.121151,57.5917687 412.037603,57.5086978 412.037603,57.5086978 L412.037603,57.0014925 L412.037603,34.571 L412.037603,33.8983284 L412.037603,19.814097 C412.037603,18.7179664 412.880495,17.7913545 414.056904,17.7913545 C415.151113,17.7913545 415.991983,18.7179664 415.991983,19.814097 L415.991983,23.7778619 C419.020597,20.1531343 423.646055,17.7913545 428.778866,17.7913545 C438.032478,17.7913545 445.51878,25.3805224 445.51878,34.571 L445.51878,57.0014925 C445.51878,58.1827201 444.595036,59.0255858 443.500154,59.0255858 C442.407292,59.0255858 441.480853,58.1827201 441.480853,57.0014925 L441.480853,34.571 Z M370.954235,38.4496679 C370.954235,47.5563993 378.104324,54.8923022 386.771079,54.8923022 C395.520708,54.8923022 402.585902,47.5563993 402.585902,38.4496679 C402.585902,29.2591903 395.520708,21.8375149 386.771079,21.8375149 C378.272768,21.8375149 371.291122,28.9228545 370.954235,37.7769963 L370.954235,38.4496679 Z M366.831412,39.2945597 L366.831412,38.4496679 L366.831412,37.6068022 L366.831412,2.02274254 C366.831412,0.925936567 367.759198,0 368.85206,0 C370.029817,0 370.954235,0.925936567 370.954235,2.02274254 L370.954235,25.8019552 C374.574422,20.9115784 380.29409,17.7062575 386.771079,17.7062575 C397.875548,17.7062575 406.708725,26.9825075 406.708725,38.4496679 C406.708725,49.7493358 397.875548,59.0255858 386.771079,59.0255858 C380.29409,59.0255858 374.574422,55.9060373 370.954235,51.0143097 L370.954235,57.0014925 C370.954235,58.0989739 370.029817,59.0255858 368.85206,59.0255858 C367.759198,59.0255858 366.831412,58.0989739 366.831412,57.0014925 L366.831412,39.2945597 Z M356.908742,34.4035075 C356.908742,26.2233881 350.346857,19.814097 342.440793,19.814097 C334.532034,19.814097 327.883906,26.2233881 327.883906,34.4035075 L327.883906,57.9301306 C327.883906,58.1827201 327.80238,58.4346343 327.633936,58.604153 C327.463471,58.8560672 327.213501,59.0255858 326.874593,59.0255858 L326.708171,59.0255858 L326.539727,59.0255858 C326.454158,58.9418396 326.371957,58.9418396 326.287736,58.8560672 C326.203514,58.8560672 326.119292,58.7709701 326.03507,58.68925 C325.950175,58.604153 325.950175,58.604153 325.950175,58.5204067 C325.866627,58.4346343 325.783079,58.265791 325.783079,58.0989739 L325.783079,57.9301306 L325.783079,34.4035075 L325.783079,33.727459 L325.783079,18.7179664 C325.783079,18.0452948 326.287736,17.7062575 326.874593,17.7062575 C327.463471,17.7062575 327.883906,18.0452948 327.883906,18.7179664 L327.883906,26.3091604 C330.747446,21.1648433 336.213774,17.7062575 342.440793,17.7062575 C351.524614,17.7062575 359.012938,25.1272575 359.012938,34.4035075 L359.012938,57.9301306 C359.012938,58.5204067 358.507608,59.0255858 357.918729,59.0255858 C357.244281,59.0255858 356.908742,58.5204067 356.908742,57.9301306 L356.908742,34.4035075 Z M283.957211,36.0899142 L319.458362,36.0899142 C318.365501,26.8967351 310.792955,19.8998694 301.792682,19.8998694 C292.622618,19.8998694 285.052094,26.8967351 283.957211,36.0899142 L283.957211,36.0899142 Z M281.771488,38.3659216 C281.938584,26.8967351 290.772435,17.7062575 301.792682,17.7062575 C312.307599,17.7062575 320.804563,26.0552201 321.561885,36.7632612 L321.561885,36.8483582 L321.561885,37.0165261 L321.561885,37.1016231 C321.476989,37.6068022 321.056554,38.1140075 320.552571,38.1140075 L283.873663,38.1140075 L283.873663,38.3659216 C283.873663,48.4863881 291.866644,56.8326493 301.792682,56.9177463 C308.018354,56.9177463 313.48603,53.5449328 316.598192,48.4863881 C316.933731,47.9798582 317.52261,47.9798582 318.111488,48.2324478 C318.531923,48.4863881 318.702388,49.1583843 318.365501,49.6655896 C314.832904,55.1469179 308.688759,59.0255858 301.792682,59.0255858 C290.772435,58.8560672 281.938584,49.6655896 281.771488,38.3659216 L281.771488,38.3659216 Z M242.117194,36.0899142 L277.616998,36.0899142 C276.524136,26.8967351 268.952264,19.8998694 259.951991,19.8998694 C250.781254,19.8998694 243.209382,26.8967351 242.117194,36.0899142 L242.117194,36.0899142 Z M239.92945,38.3659216 C240.097893,26.8967351 248.929049,17.7062575 259.951991,17.7062575 C270.465561,17.7062575 278.963872,26.0552201 279.719173,36.7632612 L279.719173,36.8483582 L279.719173,37.0165261 L279.719173,37.1016231 C279.636299,37.6068022 279.21519,38.1140075 278.709859,38.1140075 L242.031625,38.1140075 L242.031625,38.3659216 C242.031625,48.4863881 250.023932,56.8326493 259.951991,56.9177463 C266.175642,56.9177463 271.645339,53.5449328 274.75548,48.4863881 C275.094388,47.9798582 275.681245,47.9798582 276.270797,48.2324478 C276.691232,48.4863881 276.859676,49.1583843 276.524136,49.6655896 C272.990192,55.1469179 266.85009,59.0255858 259.951991,59.0255858 C248.929049,58.8560672 240.097893,49.6655896 239.92945,38.3659216 L239.92945,38.3659216 Z M221.837945,58.7709701 C221.753049,58.68925 221.669501,58.604153 221.669501,58.5204067 C221.669501,58.5204067 221.584606,58.5204067 221.584606,58.4346343 L221.584606,58.3515634 L210.480136,31.872209 L199.375667,58.3515634 C199.207224,58.68925 198.955232,58.9418396 198.618345,59.0255858 L198.282806,59.0255858 L198.114362,59.0255858 C198.030814,59.0255858 197.862371,58.9418396 197.691906,58.8560672 C197.441936,58.68925 197.273493,58.4346343 197.273493,58.1827201 L180.952665,19.3102687 C180.700674,18.8037388 180.952665,18.1276903 181.541544,17.9595224 C182.047548,17.7062575 182.719974,17.9595224 182.971966,18.4660522 L198.366354,55.2320149 L209.387275,28.9228545 C209.556392,28.5007463 210.059701,28.2474813 210.565706,28.3332537 C210.986141,28.3332537 211.321006,28.5838172 211.575019,28.9228545 L222.593919,55.2320149 L238.075224,18.4660522 C238.241646,17.9595224 238.831198,17.7062575 239.420077,17.9595224 C239.92406,18.1276903 240.260947,18.8037388 240.008955,19.3102687 L223.603232,58.3515634 C223.603232,58.5204067 223.43681,58.68925 223.267693,58.7709701 C223.014354,58.9418396 222.847258,59.0255858 222.678814,59.0255858 C222.426823,59.0255858 222.341928,59.0255858 222.173484,58.9418396 C222.005041,58.9418396 221.921493,58.8560672 221.837945,58.7709701 L221.837945,58.7709701 Z M176.411429,18.8037388 C176.411429,19.3926642 175.905424,19.814097 175.31722,19.814097 L168.587565,19.814097 L168.587565,52.7020672 C168.587565,55.0631716 170.523318,57.0014925 172.878158,57.0014925 C173.466362,57.0014925 173.971693,57.4229254 173.971693,58.0132015 C173.971693,58.604153 173.466362,59.1106828 172.878158,59.1106828 C169.344213,59.1106828 166.484716,56.2443993 166.484716,52.7020672 L166.484716,19.814097 L159.418849,19.814097 C158.829296,19.814097 158.323966,19.3926642 158.323966,18.8037388 C158.323966,18.2127873 158.829296,17.7062575 159.418849,17.7062575 L166.484716,17.7062575 L166.484716,1.17987687 C166.484716,0.589600746 166.904478,0.0823955224 167.49403,0.0823955224 C168.083582,0.0823955224 168.587565,0.589600746 168.587565,1.17987687 L168.587565,17.7062575 L175.31722,17.7062575 C175.905424,17.7062575 176.411429,18.2127873 176.411429,18.8037388 L176.411429,18.8037388 Z M122.725117,36.0899142 L158.225595,36.0899142 C157.13206,26.8967351 149.560861,19.8998694 140.559915,19.8998694 C131.390525,19.8998694 123.818652,26.8967351 122.725117,36.0899142 L122.725117,36.0899142 Z M120.538721,38.3659216 C120.70649,26.8967351 129.539667,17.7062575 140.559915,17.7062575 C151.076179,17.7062575 159.571122,26.0552201 160.329791,36.7632612 L160.329791,36.8483582 L160.329791,37.0165261 L160.329791,37.1016231 C160.244896,37.6068022 159.824461,38.1140075 159.320478,38.1140075 L122.641569,38.1140075 L122.641569,38.3659216 C122.641569,48.4863881 130.63455,56.8326493 140.559915,56.9177463 C146.784913,56.9177463 152.253262,53.5449328 155.366098,48.4863881 C155.702311,47.9798582 156.289842,47.9798582 156.879394,48.2324478 C157.299829,48.4863881 157.468947,49.1583843 157.13206,49.6655896 C153.600136,55.1469179 147.456665,59.0255858 140.559915,59.0255858 C129.539667,58.8560672 120.70649,49.6655896 120.538721,38.3659216 L120.538721,38.3659216 Z M80.1028486,38.2815 C80.1028486,48.5681082 88.1787036,56.9177463 97.8520768,56.9177463 C107.695241,56.9177463 115.771096,48.5681082 115.771096,38.2815 C115.771096,28.0799888 107.695241,19.814097 97.8520768,19.814097 C88.4306951,19.814097 80.4390618,27.6572052 80.1028486,37.523056 L80.1028486,38.2815 Z M78,39.2945597 L78,38.2815 L78,37.437959 L78,1.26227239 C78,0.672671642 78.420435,0 79.0928614,0 C79.5975181,0 80.1028486,0.672671642 80.1028486,1.26227239 L80.1028486,29.090347 C83.3841279,22.3447201 90.1137825,17.7062575 97.8520768,17.7062575 C108.95722,17.7062575 117.874618,26.9825075 117.874618,38.2815 C117.874618,49.6655896 108.95722,59.0255858 97.8520768,59.0255858 C90.1137825,59.0255858 83.3841279,54.3877985 80.1028486,47.7252425 L80.1028486,57.9301306 C80.1028486,58.5204067 79.5975181,59.0255858 79.0928614,59.0255858 C78.420435,59.0255858 78,58.5204067 78,57.9301306 L78,39.2945597 Z" id="Fill-87" fill="#ffffff"></path>
                </g>
                <path d="M483.824179,76.6967799 C483.518959,76.6967799 483.27438,76.477959 483.27438,76.1672873 C483.27438,75.8593172 483.518959,75.6175336 483.824179,75.6175336 L488.567548,75.6175336 L488.636947,75.6175336 C488.897697,75.6384701 489.117348,75.8836306 489.117348,76.1672873 L489.117348,81.4514067 L489.117348,81.5385299 C489.095787,81.694541 489.029083,81.8492015 488.919258,81.9363246 C487.558235,83.0142201 485.844827,83.6335373 483.955565,83.6335373 C479.542345,83.6085485 475.961237,80.1519888 475.961237,75.7944813 C475.961237,71.5018097 479.542345,68 483.955565,68 C485.869083,68 487.558235,68.6611903 488.942166,69.7397612 C489.140256,69.8937463 489.204938,70.2685784 489.008196,70.4880746 C488.833015,70.7089216 488.502866,70.7534963 488.240094,70.5765485 C487.119608,69.6519627 485.60429,69.0785709 483.955565,69.0785709 C480.113706,69.0785709 477.037928,72.0961381 477.037928,75.7944813 C477.037928,79.5373993 480.113706,82.5522649 483.955565,82.5522649 C485.45067,82.5522649 486.878397,82.0700485 488.01977,81.2325858 L488.01977,76.6967799 L483.824179,76.6967799 Z M460.560111,70.4880746 L460.560111,83.1020187 C460.560111,83.3877015 460.3189,83.6335373 460.031872,83.6335373 C459.746866,83.6335373 459.505655,83.3877015 459.505655,83.1020187 L459.505655,68.9691604 C459.441646,68.7476381 459.505655,68.526791 459.703744,68.3755075 C459.946977,68.220847 460.296665,68.266097 460.448938,68.5072052 L469.763864,81.4514067 L469.763864,68.9022985 C469.763864,68.6166157 470.004401,68.3755075 470.289407,68.3755075 C470.597322,68.3755075 470.838533,68.6166157 470.838533,68.9022985 L470.838533,83.1020187 C470.838533,83.3877015 470.597322,83.6335373 470.289407,83.6335373 C470.113552,83.6335373 469.984188,83.5646493 469.873015,83.4329515 C469.85078,83.4120149 469.807659,83.3877015 469.784077,83.3471791 L460.560111,70.4880746 Z M452.451915,68.7476381 C452.451915,68.4626306 452.695147,68.220847 452.978806,68.220847 C453.288068,68.220847 453.528606,68.4626306 453.528606,68.7476381 L453.528606,83.1020187 C453.528606,83.3877015 453.288068,83.6335373 452.978806,83.6335373 C452.695147,83.6335373 452.451915,83.3877015 452.451915,83.1020187 L452.451915,68.7476381 Z M441.907352,69.3000933 L437.273134,69.3000933 C436.987454,69.3000933 436.745569,69.0583097 436.745569,68.7476381 C436.745569,68.4626306 436.987454,68.220847 437.273134,68.220847 L447.594004,68.220847 C447.879011,68.220847 448.124264,68.4626306 448.124264,68.7476381 C448.124264,69.0583097 447.879011,69.3000933 447.594004,69.3000933 L442.961808,69.3000933 L442.961808,83.1020187 C442.961808,83.3877015 442.718576,83.6335373 442.433569,83.6335373 C442.148563,83.6335373 441.907352,83.3877015 441.907352,83.1020187 L441.907352,69.3000933 Z M422.388119,80.7476679 C422.563974,80.5268209 422.869868,80.5045336 423.069979,80.6828321 C424.20933,81.6060672 426.120154,82.6839627 428.119241,82.6637015 C429.458704,82.6637015 430.667454,82.2665821 431.503608,81.6499664 C432.358627,81.0340261 432.820162,80.2208769 432.820162,79.3604515 C432.820162,78.4790896 432.401748,77.8199254 431.567616,77.2458582 C430.73281,76.6967799 429.503173,76.2766978 428.01009,75.9910149 L427.96562,75.9910149 C426.539241,75.726944 425.287369,75.3318507 424.342738,74.6929478 C423.397433,74.0770075 422.760716,73.1524216 422.760716,72.0090149 C422.760716,70.8406194 423.397433,69.8289104 424.364972,69.1231455 C425.331838,68.4173806 426.626158,68 428.074772,68 C430.09542,68 431.612759,68.9894216 432.820162,69.7843358 C433.039139,69.9383209 433.105842,70.2240037 432.951548,70.4651119 C432.820162,70.6866343 432.512921,70.7534963 432.292597,70.5974851 C431.085194,69.8066231 429.765945,68.9691604 428.074772,68.9691604 C426.824247,68.9691604 425.703761,69.3439925 424.935659,69.8937463 C424.164861,70.4651119 423.727582,71.2161269 423.727582,72.0090149 C423.747795,72.7789403 424.099505,73.3509813 424.870303,73.8777724 C425.637731,74.4072649 426.780452,74.782097 428.16371,75.0461679 L428.208179,75.0461679 C429.745058,75.3318507 431.107429,75.772194 432.116742,76.4556716 C433.128077,77.1141604 433.809936,78.1258694 433.809936,79.3604515 C433.809936,80.5943582 433.105842,81.694541 432.07362,82.4428545 C431.042072,83.1911679 429.658141,83.6537985 428.119241,83.6537985 C425.768443,83.6335373 423.727582,82.4428545 422.453475,81.4311455 C422.254712,81.252847 422.232478,80.9448769 422.388119,80.7476679 L422.388119,80.7476679 Z M411.137441,82.5522649 C414.521808,82.5522649 417.377936,79.5799478 417.398149,75.8147425 C417.377936,72.0090149 414.521808,69.1008582 411.137441,69.1008582 C407.647966,69.1008582 404.793859,72.0090149 404.793859,75.8147425 C404.793859,79.5799478 407.647966,82.5522649 411.137441,82.5522649 L411.137441,82.5522649 Z M411.137441,68 C415.248136,68 418.476861,71.5018097 418.496401,75.8147425 C418.476861,80.1317276 415.248136,83.6335373 411.137441,83.6335373 C406.988341,83.6335373 403.738055,80.1317276 403.715147,75.8147425 C403.738055,71.5018097 406.988341,68 411.137441,68 L411.137441,68 Z M397.488128,76.4556716 L389.58139,76.4556716 L389.58139,83.1020187 C389.58139,83.3877015 389.340853,83.6335373 389.032938,83.6335373 C388.747932,83.6335373 388.506721,83.3877015 388.506721,83.1020187 L388.506721,68.7476381 C388.506721,68.4626306 388.747932,68.220847 389.032938,68.220847 C389.340853,68.220847 389.58139,68.4626306 389.58139,68.7476381 L389.58139,75.3966866 L397.488128,75.3966866 L397.488128,68.7476381 C397.488128,68.4626306 397.729339,68.220847 398.015019,68.220847 C398.324281,68.220847 398.564819,68.4626306 398.564819,68.7476381 L398.564819,83.1020187 C398.564819,83.3877015 398.324281,83.6335373 398.015019,83.6335373 C397.729339,83.6335373 397.488128,83.3877015 397.488128,83.1020187 L397.488128,76.4556716 Z M367.31316,68.7476381 C367.31316,68.4626306 367.531463,68.2411082 367.817143,68.220847 L367.906081,68.220847 L375.769023,68.220847 C376.05403,68.220847 376.296588,68.4626306 376.296588,68.7476381 C376.296588,69.0583097 376.05403,69.3000933 375.769023,69.3000933 L368.389177,69.3000933 L368.389177,75.3966866 L374.846627,75.3966866 C375.153868,75.3966866 375.396426,75.6384701 375.396426,75.9484664 C375.396426,76.2341493 375.153868,76.477959 374.846627,76.477959 L368.389177,76.477959 L368.389177,83.1020187 C368.389177,83.3877015 368.147966,83.6335373 367.840725,83.6335373 C367.556392,83.6335373 367.31316,83.3877015 367.31316,83.1020187 L367.31316,68.7476381 Z M354.904938,82.5522649 C358.287284,82.5522649 361.143412,79.5799478 361.165646,75.8147425 C361.143412,72.0090149 358.287284,69.1008582 354.904938,69.1008582 C351.413441,69.1008582 348.558661,72.0090149 348.558661,75.8147425 C348.558661,79.5799478 351.413441,82.5522649 354.904938,82.5522649 L354.904938,82.5522649 Z M354.904938,68 C359.013612,68 362.241663,71.5018097 362.263898,75.8147425 C362.241663,80.1317276 359.013612,83.6335373 354.904938,83.6335373 C350.755838,83.6335373 347.503531,80.1317276 347.483318,75.8147425 C347.503531,71.5018097 350.755838,68 354.904938,68 L354.904938,68 Z M330.000904,69.3000933 L325.366687,69.3000933 C325.081006,69.3000933 324.840469,69.0583097 324.840469,68.7476381 C324.840469,68.4626306 325.081006,68.220847 325.366687,68.220847 L335.691599,68.220847 C335.976606,68.220847 336.217143,68.4626306 336.217143,68.7476381 C336.217143,69.0583097 335.976606,69.3000933 335.691599,69.3000933 L331.05536,69.3000933 L331.05536,83.1020187 C331.05536,83.3877015 330.814149,83.6335373 330.527122,83.6335373 C330.242115,83.6335373 330.000904,83.3877015 330.000904,83.1020187 L330.000904,69.3000933 Z M308.059454,68.7476381 C308.059454,68.4626306 308.302013,68.220847 308.587019,68.220847 C308.892913,68.220847 309.136819,68.4626306 309.136819,68.7476381 L309.136819,77.4018694 C309.136819,80.2411381 311.443147,82.530653 314.253458,82.5522649 C317.108913,82.530653 319.415241,80.2411381 319.415241,77.4018694 L319.415241,68.7476381 C319.415241,68.4626306 319.656452,68.220847 319.942132,68.220847 C320.249373,68.220847 320.48991,68.4626306 320.48991,68.7476381 L320.48991,77.4018694 C320.48991,80.8354664 317.701834,83.6335373 314.253458,83.6335373 C310.848205,83.6335373 308.059454,80.8354664 308.059454,77.4018694 L308.059454,68.7476381 Z M295.799463,82.5522649 C299.179113,82.5522649 302.035241,79.5799478 302.058149,75.8147425 C302.035241,72.0090149 299.179113,69.1008582 295.799463,69.1008582 C292.305945,69.1008582 289.451838,72.0090149 289.451838,75.8147425 C289.451838,79.5799478 292.305945,82.5522649 295.799463,82.5522649 L295.799463,82.5522649 Z M295.799463,68 C299.905441,68 303.134166,71.5018097 303.155727,75.8147425 C303.134166,80.1317276 299.905441,83.6335373 295.799463,83.6335373 C291.647667,83.6335373 288.397382,80.1317276 288.375147,75.8147425 C288.397382,71.5018097 291.647667,68 295.799463,68 L295.799463,68 Z M268.128239,68.7476381 C268.128239,68.4626306 268.36945,68.220847 268.653783,68.220847 L268.698925,68.220847 L276.561868,68.220847 C276.869109,68.220847 277.089433,68.4626306 277.089433,68.7476381 C277.089433,69.0583097 276.869109,69.3000933 276.561868,69.3000933 L269.202908,69.3000933 L269.202908,75.3966866 L275.639471,75.3966866 C275.923804,75.3966866 276.167036,75.6384701 276.167036,75.9484664 C276.167036,76.2341493 275.923804,76.477959 275.639471,76.477959 L269.202908,76.477959 L269.202908,82.5522649 L276.561868,82.5522649 C276.869109,82.5522649 277.089433,82.7953993 277.089433,83.1020187 C277.089433,83.3877015 276.869109,83.6335373 276.561868,83.6335373 L268.72116,83.6335373 L268.653783,83.6335373 L268.609987,83.6335373 C268.346542,83.6085485 268.128239,83.3877015 268.128239,83.1020187 L268.128239,68.7476381 Z M255.78133,83.6335373 L255.738209,83.6335373 C255.453203,83.6335373 255.208623,83.3877015 255.208623,83.1020187 L255.208623,68.7476381 C255.208623,68.4626306 255.453203,68.220847 255.738209,68.220847 C256.044102,68.220847 256.286661,68.4626306 256.286661,68.7476381 L256.286661,82.5522649 L263.642252,82.5522649 C263.951514,82.5522649 264.192051,82.7953993 264.192051,83.1020187 C264.192051,83.3877015 263.951514,83.6335373 263.642252,83.6335373 L255.78133,83.6335373 Z M239.208512,80.7476679 C239.385041,80.5268209 239.692281,80.5045336 239.890371,80.6828321 C241.03107,81.6060672 242.942567,82.6839627 244.941655,82.6637015 C246.280443,82.6637015 247.489868,82.2665821 248.324,81.6499664 C249.179693,81.0340261 249.641228,80.2208769 249.641228,79.3604515 C249.641228,78.4790896 249.224162,77.8199254 248.388682,77.2458582 C247.555224,76.6967799 246.325586,76.2766978 244.832503,75.9910149 L244.788034,75.9910149 C243.359633,75.726944 242.109783,75.3318507 241.16313,74.6929478 C240.219846,74.0770075 239.58313,73.1524216 239.58313,72.0090149 C239.58313,70.8406194 240.219846,69.8289104 241.187386,69.1231455 C242.151557,68.4173806 243.448571,68 244.897186,68 C246.917834,68 248.433151,68.9894216 249.641228,69.7843358 C249.861552,69.9383209 249.927582,70.2240037 249.773962,70.4651119 C249.641228,70.6866343 249.335335,70.7534963 249.114337,70.5974851 C247.906934,69.8066231 246.587684,68.9691604 244.897186,68.9691604 C243.64464,68.9691604 242.526175,69.3439925 241.756051,69.8937463 C240.987275,70.4651119 240.549996,71.2161269 240.549996,72.0090149 C240.570209,72.7789403 240.921919,73.3509813 241.690695,73.8777724 C242.459471,74.4072649 243.600844,74.782097 244.984102,75.0461679 L245.028571,75.0461679 C246.567471,75.3318507 247.927821,75.772194 248.939156,76.4556716 C249.948469,77.1141604 250.629655,78.1258694 250.629655,79.3604515 C250.629655,80.5943582 249.927582,81.694541 248.894013,82.4428545 C247.862465,83.1911679 246.478533,83.6537985 244.941655,83.6537985 C242.590857,83.6335373 240.549996,82.4428545 239.273868,81.4311455 C239.077126,81.252847 239.055565,80.9448769 239.208512,80.7476679 L239.208512,80.7476679 Z M223.983241,80.7476679 C224.159096,80.5268209 224.466337,80.5045336 224.664426,80.6828321 C225.807821,81.6060672 227.717296,82.6839627 229.71571,82.6637015 C231.055173,82.6637015 232.263249,82.2665821 233.098055,81.6499664 C233.95577,81.0340261 234.417305,80.2208769 234.417305,79.3604515 C234.417305,78.4790896 234.000239,77.8199254 233.163412,77.2458582 C232.329279,76.6967799 231.099642,76.2766978 229.604537,75.9910149 L229.56209,75.9910149 C228.134362,75.726944 226.881817,75.3318507 225.937186,74.6929478 C224.994576,74.0770075 224.355164,73.1524216 224.355164,72.0090149 C224.355164,70.8406194 224.994576,69.8289104 225.95942,69.1231455 C226.926286,68.4173806 228.221279,68 229.673262,68 C231.69391,68 233.207207,68.9894216 234.417305,69.7843358 C234.635608,69.9383209 234.702311,70.2240037 234.54667,70.4651119 C234.417305,70.6866343 234.107369,70.7534963 233.889066,70.5974851 C232.681663,69.8066231 231.362414,68.9691604 229.673262,68.9691604 C228.419369,68.9691604 227.298883,69.3439925 226.530107,69.8937463 C225.763352,70.4651119 225.322704,71.2161269 225.322704,72.0090149 C225.346286,72.7789403 225.696648,73.3509813 226.465424,73.8777724 C227.2342,74.4072649 228.3749,74.782097 229.760853,75.0461679 L229.802627,75.0461679 C231.340853,75.3318507 232.701876,75.772194 233.713211,76.4556716 C234.722525,77.1141604 235.404384,78.1258694 235.404384,79.3604515 C235.404384,80.5943582 234.702311,81.694541 233.668742,82.4428545 C232.63652,83.1911679 231.253262,83.6537985 229.71571,83.6537985 C227.366934,83.6335373 225.322704,82.4428545 224.047923,81.4311455 C223.851181,81.252847 223.82962,80.9448769 223.983241,80.7476679 L223.983241,80.7476679 Z M211.606013,78.5682388 L217.820904,78.5682388 L214.725586,70.291541 L211.606013,78.5682388 Z M218.217083,79.6468097 L211.211855,79.6468097 L209.84881,83.278291 C209.76122,83.4991381 209.56313,83.6335373 209.342806,83.6335373 C209.300358,83.6335373 209.21142,83.6085485 209.146738,83.6085485 C208.883292,83.4991381 208.729672,83.1688806 208.838823,82.9048097 L214.175787,68.6166157 C214.264725,68.4173806 214.485049,68.2856828 214.70133,68.2856828 C214.944563,68.2856828 215.162866,68.4173806 215.228896,68.6166157 L220.567207,82.9048097 C220.676358,83.1688806 220.545646,83.4991381 220.2822,83.6085485 C220.193936,83.6085485 220.150814,83.6335373 220.084111,83.6335373 C219.886021,83.6335373 219.665023,83.4991381 219.57878,83.278291 L218.217083,79.6468097 Z M203.256606,76.4556716 L195.350542,76.4556716 L195.350542,83.1020187 C195.350542,83.3877015 195.107983,83.6335373 194.800742,83.6335373 C194.515062,83.6335373 194.274525,83.3877015 194.274525,83.1020187 L194.274525,68.7476381 C194.274525,68.4626306 194.515062,68.220847 194.800742,68.220847 C195.107983,68.220847 195.350542,68.4626306 195.350542,68.7476381 L195.350542,75.3966866 L203.256606,75.3966866 L203.256606,68.7476381 C203.256606,68.4626306 203.499164,68.220847 203.784171,68.220847 C204.091412,68.220847 204.332623,68.4626306 204.332623,68.7476381 L204.332623,83.1020187 C204.332623,83.3877015 204.091412,83.6335373 203.784171,83.6335373 C203.499164,83.6335373 203.256606,83.3877015 203.256606,83.1020187 L203.256606,76.4556716 Z M173.345757,68.7476381 C173.345757,68.4626306 173.587642,68.220847 173.873322,68.220847 L173.91577,68.220847 L181.779386,68.220847 C182.086627,68.220847 182.306951,68.4626306 182.306951,68.7476381 C182.306951,69.0583097 182.086627,69.3000933 181.779386,69.3000933 L174.4211,69.3000933 L174.4211,75.3966866 L180.856989,75.3966866 C181.14267,75.3966866 181.384554,75.6384701 181.384554,75.9484664 C181.384554,76.2341493 181.14267,76.477959 180.856989,76.477959 L174.4211,76.477959 L174.4211,82.5522649 L181.779386,82.5522649 C182.086627,82.5522649 182.306951,82.7953993 182.306951,83.1020187 C182.306951,83.3877015 182.086627,83.6335373 181.779386,83.6335373 L173.938678,83.6335373 L173.873322,83.6335373 L173.828179,83.6335373 C173.564733,83.6085485 173.345757,83.3877015 173.345757,83.1020187 L173.345757,68.7476381 Z M166.283932,76.4556716 L158.377868,76.4556716 L158.377868,83.1020187 C158.377868,83.3877015 158.135983,83.6335373 157.829416,83.6335373 C157.544409,83.6335373 157.302525,83.3877015 157.302525,83.1020187 L157.302525,68.7476381 C157.302525,68.4626306 157.544409,68.220847 157.829416,68.220847 C158.135983,68.220847 158.377868,68.4626306 158.377868,68.7476381 L158.377868,75.3966866 L166.283932,75.3966866 L166.283932,68.7476381 C166.283932,68.4626306 166.527838,68.220847 166.812844,68.220847 C167.120759,68.220847 167.361296,68.4626306 167.361296,68.7476381 L167.361296,83.1020187 C167.361296,83.3877015 167.120759,83.6335373 166.812844,83.6335373 C166.527838,83.6335373 166.283932,83.3877015 166.283932,83.1020187 L166.283932,76.4556716 Z M146.828708,69.3000933 L142.195164,69.3000933 C141.909484,69.3000933 141.668947,69.0583097 141.668947,68.7476381 C141.668947,68.4626306 141.909484,68.220847 142.195164,68.220847 L152.518055,68.220847 C152.804409,68.220847 153.044947,68.4626306 153.044947,68.7476381 C153.044947,69.0583097 152.804409,69.3000933 152.518055,69.3000933 L147.883164,69.3000933 L147.883164,83.1020187 C147.883164,83.3877015 147.641953,83.6335373 147.356273,83.6335373 C147.070593,83.6335373 146.828708,83.3877015 146.828708,83.1020187 L146.828708,69.3000933 Z M121.925348,68.7476381 C121.925348,68.4626306 122.167232,68.220847 122.452239,68.220847 L122.496034,68.220847 L130.35965,68.220847 C130.666217,68.220847 130.886542,68.4626306 130.886542,68.7476381 C130.886542,69.0583097 130.666217,69.3000933 130.35965,69.3000933 L123.001365,69.3000933 L123.001365,75.3966866 L129.437254,75.3966866 C129.72226,75.3966866 129.964145,75.6384701 129.964145,75.9484664 C129.964145,76.2341493 129.72226,76.477959 129.437254,76.477959 L123.001365,76.477959 L123.001365,82.5522649 L130.35965,82.5522649 C130.666217,82.5522649 130.886542,82.7953993 130.886542,83.1020187 C130.886542,83.3877015 130.666217,83.6335373 130.35965,83.6335373 L122.518269,83.6335373 L122.452239,83.6335373 L122.40777,83.6335373 C122.144998,83.6085485 121.925348,83.3877015 121.925348,83.1020187 L121.925348,68.7476381 Z M106.168469,68.8151754 C106.168469,68.5072052 106.409006,68.266097 106.694687,68.266097 C107.002601,68.266097 107.244486,68.5072052 107.244486,68.8151754 L107.244486,77.7307761 L116.534482,68.4173806 C116.754806,68.220847 117.105842,68.220847 117.281697,68.4173806 C117.501348,68.6166157 117.501348,68.9691604 117.281697,69.1900075 L111.395608,75.0907425 L117.413083,82.7515 C117.588938,82.993959 117.544469,83.3026045 117.326166,83.5214254 C117.216341,83.6085485 117.105842,83.6335373 116.973109,83.6335373 C116.820162,83.6335373 116.688776,83.5882873 116.578951,83.4329515 L110.625484,75.8593172 L107.244486,79.251041 L107.244486,83.1020187 C107.244486,83.3877015 107.002601,83.6335373 106.694687,83.6335373 C106.409006,83.6335373 106.168469,83.3877015 106.168469,83.1020187 L106.168469,68.8151754 Z M93.2293134,78.5682388 L99.4442047,78.5682388 L96.3475394,70.291541 L93.2293134,78.5682388 Z M99.83971,79.6468097 L92.8324606,79.6468097 L91.4714371,83.278291 C91.3831727,83.4991381 91.1857569,83.6335373 90.9654328,83.6335373 C90.9223113,83.6335373 90.8347207,83.6085485 90.7686908,83.6085485 C90.5045714,83.4991381 90.3516247,83.1688806 90.4607761,82.9048097 L95.7984136,68.6166157 C95.8860043,68.4173806 96.1070021,68.2856828 96.3253049,68.2856828 C96.5671898,68.2856828 96.7861663,68.4173806 96.8521962,68.6166157 L102.18916,82.9048097 C102.299659,83.1688806 102.167599,83.4991381 101.904154,83.6085485 C101.816563,83.6085485 101.772768,83.6335373 101.706064,83.6335373 C101.508648,83.6335373 101.288998,83.4991381 101.201407,83.278291 L99.83971,79.6468097 Z M83.1611087,69.3000933 L78.527565,69.3000933 C78.2425586,69.3000933 78,69.0583097 78,68.7476381 C78,68.4626306 78.2425586,68.220847 78.527565,68.220847 L88.8504563,68.220847 C89.1368102,68.220847 89.3773475,68.4626306 89.3773475,68.7476381 C89.3773475,69.0583097 89.1368102,69.3000933 88.8504563,69.3000933 L84.2162388,69.3000933 L84.2162388,83.1020187 C84.2162388,83.3877015 83.9743539,83.6335373 83.6886738,83.6335373 C83.4036674,83.6335373 83.1611087,83.3877015 83.1611087,83.1020187 L83.1611087,69.3000933 Z" id="Fill-89" fill="#ffffff"></path>
            </g>
        </g>
    </g>
</svg>