<?xml version="1.0" encoding="UTF-8" standalone="no"?>
<svg width="889px" height="241px" viewBox="0 0 889 241" version="1.1" xmlns="http://www.w3.org/2000/svg" xmlns:xlink="http://www.w3.org/1999/xlink">
    <!-- Generator: Sketch 43.1 (39012) - http://www.bohemiancoding.com/sketch -->
    <title>Big Logo</title>
    <desc>Created with Sketch.</desc>
    <defs>
        <polygon id="path-1" points="0.000298675912 0.822328406 248.966012 0.822328406 248.966012 234.473397 0.000298675912 234.473397"></polygon>
        <path d="M835.914487,118.088932 C835.914487,130.050395 845.951305,139.685919 858.112932,139.685919 C870.389925,139.685919 880.309486,130.050395 880.309486,118.088932 C880.309486,106.01747 870.389925,96.2692857 858.112932,96.2692857 C846.184873,96.2692857 836.387297,105.575701 835.914487,117.205394 L835.914487,118.088932 Z M830.130125,119.198676 L830.130125,118.088932 L830.130125,116.981849 L830.130125,70.2430795 C830.130125,68.8024524 831.427517,67.586258 832.964151,67.586258 C834.617096,67.586258 835.914487,68.8024524 835.914487,70.2430795 L835.914487,101.476479 C840.991524,95.0530913 849.017953,90.8429827 858.112932,90.8429827 C873.693924,90.8429827 886.091957,103.027104 886.091957,118.088932 C886.091957,132.930762 873.693924,145.114883 858.112932,145.114883 C849.017953,145.114883 840.991524,141.017435 835.914487,134.592273 L835.914487,142.456288 C835.914487,143.897802 834.617096,145.114883 832.964151,145.114883 C831.427517,145.114883 830.130125,143.897802 830.130125,142.456288 L830.130125,119.198676 Z M813.72077,112.994399 C813.72077,103.802417 805.810653,96.2692857 795.893929,96.2692857 C786.092571,96.2692857 778.185291,103.802417 777.94794,112.994399 L777.94794,142.456288 L777.94794,142.900718 C777.828792,143.34426 777.711535,143.785142 777.357873,144.116912 C776.885062,144.780452 776.05859,145.114883 775.232117,145.114883 L774.524793,145.114883 C773.695484,144.892225 772.98816,144.338683 772.634498,143.67603 C772.515349,143.563371 772.515349,143.454259 772.515349,143.34426 C772.515349,143.2316 772.398092,143.122489 772.398092,143.122489 L772.398092,142.456288 L772.398092,112.994399 L772.398092,112.110861 L772.398092,93.6115771 C772.398092,92.171837 773.581064,90.9547555 775.232117,90.9547555 C776.767805,90.9547555 777.94794,92.171837 777.94794,93.6115771 L777.94794,98.8178828 C782.198505,94.0568941 788.690191,90.9547555 795.893929,90.9547555 C808.881083,90.9547555 819.387875,100.922937 819.387875,112.994399 L819.387875,142.456288 C819.387875,144.0078 818.091429,145.114883 816.554795,145.114883 C815.020998,145.114883 813.72077,144.0078 813.72077,142.456288 L813.72077,112.994399 Z M714.738872,118.088932 C714.738872,130.050395 724.773799,139.685919 736.937317,139.685919 C749.217147,139.685919 759.132926,130.050395 759.132926,118.088932 C759.132926,106.01747 749.217147,96.2692857 736.937317,96.2692857 C725.010204,96.2692857 715.211682,105.575701 714.738872,117.205394 L714.738872,118.088932 Z M708.952619,119.198676 L708.952619,118.088932 L708.952619,116.981849 L708.952619,70.2430795 C708.952619,68.8024524 710.254739,67.586258 711.788536,67.586258 C713.441481,67.586258 714.738872,68.8024524 714.738872,70.2430795 L714.738872,101.476479 C719.819692,95.0530913 727.847066,90.8429827 736.937317,90.8429827 C752.522092,90.8429827 764.919178,103.027104 764.919178,118.088932 C764.919178,132.930762 752.522092,145.114883 736.937317,145.114883 C727.847066,145.114883 719.819692,141.017435 714.738872,134.592273 L714.738872,142.456288 C714.738872,143.897802 713.441481,145.114883 711.788536,145.114883 C710.254739,145.114883 708.952619,143.897802 708.952619,142.456288 L708.952619,119.198676 Z M695.026464,112.774401 C695.026464,102.03002 685.817064,93.6115771 674.721151,93.6115771 C663.621456,93.6115771 654.291016,102.03002 654.291016,112.774401 L654.291016,143.67603 C654.291016,144.0078 654.176596,144.338683 653.940191,144.561342 C653.700949,144.892225 653.350124,145.114883 652.874477,145.114883 L652.640908,145.114883 L652.404503,145.114883 C652.284409,145.004885 652.169044,145.004885 652.050841,144.892225 C651.932638,144.892225 651.814436,144.780452 651.696233,144.673115 C651.577085,144.561342 651.577085,144.561342 651.577085,144.451343 C651.459828,144.338683 651.342571,144.116912 651.342571,143.897802 L651.342571,143.67603 L651.342571,112.774401 L651.342571,111.886429 L651.342571,92.171837 C651.342571,91.2882997 652.050841,90.8429827 652.874477,90.8429827 C653.700949,90.8429827 654.291016,91.2882997 654.291016,92.171837 L654.291016,102.14268 C658.309904,95.3857484 665.981725,90.8429827 674.721151,90.8429827 C687.470009,90.8429827 697.979637,100.59028 697.979637,112.774401 L697.979637,143.67603 C697.979637,144.451343 697.270421,145.114883 696.443949,145.114883 C695.497383,145.114883 695.026464,144.451343 695.026464,143.67603 L695.026464,112.774401 Z M592.641277,114.989454 L642.46603,114.989454 C640.932233,102.914444 630.304403,93.7242369 617.672802,93.7242369 C604.802904,93.7242369 594.17791,102.914444 592.641277,114.989454 L592.641277,114.989454 Z M589.573683,117.978933 C589.808197,102.914444 602.20623,90.8429827 617.672802,90.8429827 C632.430158,90.8429827 644.35538,101.809136 645.418258,115.873879 L645.418258,115.985652 L645.418258,116.206536 L645.418258,116.318309 C645.299109,116.981849 644.709042,117.64805 644.001718,117.64805 L592.52402,117.64805 L592.52402,117.978933 C592.52402,131.271912 603.741918,142.234516 617.672802,142.346289 C626.410337,142.346289 634.084048,137.916183 638.45187,131.271912 C638.922789,130.606597 639.749262,130.606597 640.575734,130.938367 C641.165802,131.271912 641.405044,132.154562 640.932233,132.820763 C635.974344,140.02035 627.351229,145.114883 617.672802,145.114883 C602.20623,144.892225 589.808197,132.820763 589.573683,117.978933 L589.573683,117.978933 Z M533.920125,114.989454 L583.742986,114.989454 C582.20919,102.914444 571.582305,93.7242369 558.950704,93.7242369 C546.079861,93.7242369 535.452976,102.914444 533.920125,114.989454 L533.920125,114.989454 Z M530.849694,117.978933 C531.086099,102.914444 543.48035,90.8429827 558.950704,90.8429827 C573.706169,90.8429827 585.633282,101.809136 586.693323,115.873879 L586.693323,115.985652 L586.693323,116.206536 L586.693323,116.318309 C586.577012,116.981849 585.985999,117.64805 585.276783,117.64805 L533.800031,117.64805 L533.800031,117.978933 C533.800031,131.271912 545.016983,142.234516 558.950704,142.346289 C567.685402,142.346289 575.36195,137.916183 579.726935,131.271912 C580.202583,130.606597 581.026218,130.606597 581.853636,130.938367 C582.443704,131.271912 582.680109,132.154562 582.20919,132.820763 C577.249409,140.02035 568.631968,145.114883 558.950704,145.114883 C543.48035,144.892225 531.086099,132.820763 530.849694,117.978933 L530.849694,117.978933 Z M505.458834,144.780452 C505.339686,144.673115 505.222429,144.561342 505.222429,144.451343 C505.222429,144.451343 505.10328,144.451343 505.10328,144.338683 L505.10328,144.229572 L489.518506,109.449604 L473.933732,144.229572 C473.697327,144.673115 473.343665,145.004885 472.870854,145.114883 L472.399935,145.114883 L472.16353,145.114883 C472.046273,145.114883 471.809868,145.004885 471.570626,144.892225 C471.219801,144.673115 470.983395,144.338683 470.983395,144.0078 L448.077626,92.9498112 C447.723964,92.2844969 448.077626,91.3965242 448.904098,91.1756398 C449.614259,90.8429827 450.557989,91.1756398 450.911651,91.8409541 L472.517192,140.132123 L487.984709,105.575701 C488.22206,105.021273 488.928439,104.688616 489.6386,104.801276 C490.228667,104.801276 490.698641,105.130384 491.05514,105.575701 L506.51982,140.132123 L528.247346,91.8409541 C528.480915,91.1756398 529.308333,90.8429827 530.134805,91.1756398 C530.842129,91.3965242 531.31494,92.2844969 530.961278,92.9498112 L507.93636,144.229572 C507.93636,144.451343 507.702792,144.673115 507.465441,144.780452 C507.109887,145.004885 506.875373,145.114883 506.638968,145.114883 C506.285306,145.114883 506.166158,145.114883 505.929753,145.004885 C505.693348,145.004885 505.576091,144.892225 505.458834,144.780452 L505.458834,144.780452 Z M441.704143,92.2844969 C441.704143,93.0580356 440.993981,93.6115771 440.168455,93.6115771 L430.723595,93.6115771 L430.723595,136.8091 C430.723595,139.910352 433.440364,142.456288 436.745308,142.456288 C437.570835,142.456288 438.28005,143.009829 438.28005,143.785142 C438.28005,144.561342 437.570835,145.226656 436.745308,145.226656 C431.785527,145.226656 427.772313,141.461865 427.772313,136.8091 L427.772313,93.6115771 L417.855589,93.6115771 C417.028171,93.6115771 416.318956,93.0580356 416.318956,92.2844969 C416.318956,91.508297 417.028171,90.8429827 417.855589,90.8429827 L427.772313,90.8429827 L427.772313,69.1359966 C427.772313,68.3606838 428.361435,67.6944824 429.188853,67.6944824 C430.016271,67.6944824 430.723595,68.3606838 430.723595,69.1359966 L430.723595,90.8429827 L440.168455,90.8429827 C440.993981,90.8429827 441.704143,91.508297 441.704143,92.2844969 L441.704143,92.2844969 Z M366.357088,114.989454 L416.180895,114.989454 C414.646153,102.914444 404.020213,93.7242369 391.387667,93.7242369 C378.518715,93.7242369 367.89183,102.914444 366.357088,114.989454 L366.357088,114.989454 Z M363.288549,117.978933 C363.524008,102.914444 375.921095,90.8429827 391.387667,90.8429827 C406.146914,90.8429827 418.0693,101.809136 419.134068,115.873879 L419.134068,115.985652 L419.134068,116.206536 L419.134068,116.318309 C419.01492,116.981849 418.424853,117.64805 417.717529,117.64805 L366.239831,117.64805 L366.239831,117.978933 C366.239831,131.271912 377.457729,142.234516 391.387667,142.346289 C400.124256,142.346289 407.798913,137.916183 412.167681,131.271912 C412.639546,130.606597 413.464127,130.606597 414.291545,130.938367 C414.881612,131.271912 415.118963,132.154562 414.646153,132.820763 C409.689209,140.02035 401.06704,145.114883 391.387667,145.114883 C375.921095,144.892225 363.524008,132.820763 363.288549,117.978933 L363.288549,117.978933 Z M306.53807,117.868047 C306.53807,131.379249 317.872279,142.346289 331.448555,142.346289 C345.263127,142.346289 356.597337,131.379249 356.597337,117.868047 C356.597337,104.468618 345.263127,93.6115771 331.448555,93.6115771 C318.225941,93.6115771 307.009934,103.913303 306.53807,116.87185 L306.53807,117.868047 Z M303.586788,119.198676 L303.586788,117.868047 L303.586788,116.760077 L303.586788,69.2442211 C303.586788,68.4697953 304.176855,67.586258 305.120584,67.586258 C305.828854,67.586258 306.53807,68.4697953 306.53807,69.2442211 L306.53807,105.795699 C311.143242,96.935487 320.588102,90.8429827 331.448555,90.8429827 C347.034275,90.8429827 359.549564,103.027104 359.549564,117.868047 C359.549564,132.820763 347.034275,145.114883 331.448555,145.114883 C320.588102,145.114883 311.143242,139.023266 306.53807,130.272166 L306.53807,143.67603 C306.53807,144.451343 305.828854,145.114883 305.120584,145.114883 C304.176855,145.114883 303.586788,144.451343 303.586788,143.67603 L303.586788,119.198676 Z" id="path-3"></path>
        <filter x="-0.7%" y="-2.6%" width="101.4%" height="110.3%" filterUnits="objectBoundingBox" id="filter-4">
            <feOffset dx="0" dy="2" in="SourceAlpha" result="shadowOffsetOuter1"></feOffset>
            <feGaussianBlur stdDeviation="1" in="shadowOffsetOuter1" result="shadowBlurOuter1"></feGaussianBlur>
            <feColorMatrix values="0 0 0 0 0   0 0 0 0 0.0352941176   0 0 0 0 0.0431372549  0 0 0 0.5 0" type="matrix" in="shadowBlurOuter1"></feColorMatrix>
        </filter>
        <path d="M869.630876,171.32791 C869.20251,171.32791 868.859249,171.040494 868.859249,170.632435 C868.859249,170.227924 869.20251,169.910347 869.630876,169.910347 L876.288045,169.910347 L876.385444,169.910347 C876.751399,169.937847 877.059672,170.259859 877.059672,170.632435 L877.059672,177.572993 L877.059672,177.687427 C877.029412,177.892344 876.935795,178.095486 876.781659,178.20992 C874.871505,179.625709 872.466792,180.439167 869.815272,180.439167 C863.621456,180.406344 858.595482,175.86624 858.595482,170.142763 C858.595482,164.504447 863.621456,159.904908 869.815272,159.904908 C872.500834,159.904908 874.871505,160.773365 876.81381,162.19004 C877.091823,162.392296 877.182602,162.884628 876.906481,163.172931 C876.66062,163.463008 876.197266,163.521556 875.828474,163.28914 C874.255906,162.074719 872.129206,161.321584 869.815272,161.321584 C864.423343,161.321584 860.106584,165.285082 860.106584,170.142763 C860.106584,175.058992 864.423343,179.018942 869.815272,179.018942 C871.913604,179.018942 873.917374,178.385563 875.519256,177.285577 L875.519256,171.32791 L869.630876,171.32791 Z M836.980485,163.172931 L836.980485,179.74103 C836.980485,180.116267 836.641953,180.439167 836.239119,180.439167 C835.839121,180.439167 835.500589,180.116267 835.500589,179.74103 L835.500589,161.177876 C835.410755,160.886912 835.500589,160.596835 835.778601,160.398127 C836.11997,160.194985 836.610748,160.254419 836.824458,160.571109 L849.897664,177.572993 L849.897664,161.090054 C849.897664,160.714817 850.23525,160.398127 850.635248,160.398127 C851.067396,160.398127 851.405929,160.714817 851.405929,161.090054 L851.405929,179.74103 C851.405929,180.116267 851.067396,180.439167 850.635248,180.439167 C850.388441,180.439167 850.206882,180.348684 850.050854,180.175702 C850.019649,180.148202 849.959129,180.116267 849.926032,180.063042 L836.980485,163.172931 Z M825.600886,160.886912 C825.600886,160.512561 825.942255,160.194985 826.340361,160.194985 C826.774401,160.194985 827.111988,160.512561 827.111988,160.886912 L827.111988,179.74103 C827.111988,180.116267 826.774401,180.439167 826.340361,180.439167 C825.942255,180.439167 825.600886,180.116267 825.600886,179.74103 L825.600886,160.886912 Z M810.801923,161.612548 L804.297944,161.612548 C803.897001,161.612548 803.557523,161.294971 803.557523,160.886912 C803.557523,160.512561 803.897001,160.194985 804.297944,160.194985 L818.782961,160.194985 C819.182959,160.194985 819.527165,160.512561 819.527165,160.886912 C819.527165,161.294971 819.182959,161.612548 818.782961,161.612548 L812.281819,161.612548 L812.281819,179.74103 C812.281819,180.116267 811.94045,180.439167 811.540452,180.439167 C811.140455,180.439167 810.801923,180.116267 810.801923,179.74103 L810.801923,161.612548 Z M783.407292,176.64865 C783.654099,176.358573 784.083411,176.329299 784.36426,176.563489 C785.963305,177.776135 788.645085,179.191924 791.450741,179.165312 C793.330635,179.165312 795.027079,178.643705 796.200594,177.833796 C797.400587,177.024774 798.048337,175.956723 798.048337,174.826576 C798.048337,173.668929 797.461106,172.803133 796.290428,172.04911 C795.118804,171.32791 793.393046,170.776142 791.297551,170.400905 L791.23514,170.400905 C789.233261,170.054055 787.476298,169.53511 786.150537,168.695927 C784.823832,167.886904 783.93022,166.672484 783.93022,165.170648 C783.93022,163.63599 784.823832,162.307136 786.181743,161.380131 C787.538709,160.453127 789.355246,159.904908 791.38833,159.904908 C794.224247,159.904908 796.353784,161.204488 798.048337,162.248588 C798.355663,162.450844 798.44928,162.826081 798.232733,163.14277 C798.048337,163.433734 797.617134,163.521556 797.307916,163.316639 C795.613363,162.277862 793.761838,161.177876 791.38833,161.177876 C789.633258,161.177876 788.060691,161.670208 786.982684,162.392296 C785.900894,163.14277 785.287186,164.12921 785.287186,165.170648 C785.315554,166.181926 785.809168,166.933287 786.890958,167.625214 C787.96802,168.320689 789.571793,168.813022 791.513152,169.159872 L791.575563,169.159872 C793.732524,169.53511 795.644569,170.113489 797.061109,171.01122 C798.480485,171.876129 799.437453,173.204983 799.437453,174.826576 C799.437453,176.447281 798.44928,177.892344 797.000589,178.875235 C795.552844,179.858125 793.610539,180.465779 791.450741,180.465779 C788.151471,180.439167 785.287186,178.875235 783.499017,177.54638 C783.220059,177.31219 783.188853,176.907679 783.407292,176.64865 L783.407292,176.64865 Z M767.617318,179.018942 C772.367171,179.018942 776.375657,175.114878 776.404025,170.169376 C776.375657,165.170648 772.367171,161.350857 767.617318,161.350857 C762.719948,161.350857 758.714299,165.170648 758.714299,170.169376 C758.714299,175.114878 762.719948,179.018942 767.617318,179.018942 L767.617318,179.018942 Z M767.617318,159.904908 C773.38655,159.904908 777.917964,164.504447 777.945387,170.169376 C777.917964,175.839627 773.38655,180.439167 767.617318,180.439167 C761.794186,180.439167 757.232512,175.839627 757.200361,170.169376 C757.232512,164.504447 761.794186,159.904908 767.617318,159.904908 L767.617318,159.904908 Z M748.460934,171.01122 L737.364076,171.01122 L737.364076,179.74103 C737.364076,180.116267 737.026489,180.439167 736.594341,180.439167 C736.194343,180.439167 735.855811,180.116267 735.855811,179.74103 L735.855811,160.886912 C735.855811,160.512561 736.194343,160.194985 736.594341,160.194985 C737.026489,160.194985 737.364076,160.512561 737.364076,160.886912 L737.364076,169.62027 L748.460934,169.62027 L748.460934,160.886912 C748.460934,160.512561 748.799467,160.194985 749.20041,160.194985 C749.63445,160.194985 749.972036,160.512561 749.972036,160.886912 L749.972036,179.74103 C749.972036,180.116267 749.63445,180.439167 749.20041,180.439167 C748.799467,180.439167 748.460934,180.116267 748.460934,179.74103 L748.460934,171.01122 Z M706.111313,160.886912 C706.111313,160.512561 706.417694,160.221597 706.818637,160.194985 L706.943459,160.194985 L717.978852,160.194985 C718.37885,160.194985 718.719273,160.512561 718.719273,160.886912 C718.719273,161.294971 718.37885,161.612548 717.978852,161.612548 L707.621469,161.612548 L707.621469,169.62027 L716.684297,169.62027 C717.1155,169.62027 717.455924,169.937847 717.455924,170.345019 C717.455924,170.720256 717.1155,171.040494 716.684297,171.040494 L707.621469,171.040494 L707.621469,179.74103 C707.621469,180.116267 707.282937,180.439167 706.851734,180.439167 C706.452682,180.439167 706.111313,180.116267 706.111313,179.74103 L706.111313,160.886912 Z M688.696763,179.018942 C693.443778,179.018942 697.452264,175.114878 697.48347,170.169376 C697.452264,165.170648 693.443778,161.350857 688.696763,161.350857 C683.796556,161.350857 679.789961,165.170648 679.789961,170.169376 C679.789961,175.114878 683.796556,179.018942 688.696763,179.018942 L688.696763,179.018942 Z M688.696763,159.904908 C694.463157,159.904908 698.993626,164.504447 699.024831,170.169376 C698.993626,175.839627 694.463157,180.439167 688.696763,180.439167 C682.87363,180.439167 678.309119,175.839627 678.280751,170.169376 C678.309119,164.504447 682.87363,159.904908 688.696763,159.904908 L688.696763,159.904908 Z M653.744731,161.612548 L647.240752,161.612548 C646.839809,161.612548 646.502223,161.294971 646.502223,160.886912 C646.502223,160.512561 646.839809,160.194985 647.240752,160.194985 L661.731444,160.194985 C662.131441,160.194985 662.469028,160.512561 662.469028,160.886912 C662.469028,161.294971 662.131441,161.612548 661.731444,161.612548 L655.224628,161.612548 L655.224628,179.74103 C655.224628,180.116267 654.886096,180.439167 654.483261,180.439167 C654.083264,180.439167 653.744731,180.116267 653.744731,179.74103 L653.744731,161.612548 Z M622.950594,160.886912 C622.950594,160.512561 623.291018,160.194985 623.691015,160.194985 C624.120327,160.194985 624.462642,160.512561 624.462642,160.886912 L624.462642,172.254027 C624.462642,175.983335 627.699501,178.990556 631.643685,179.018942 C635.651225,178.990556 638.888085,175.983335 638.888085,172.254027 L638.888085,160.886912 C638.888085,160.512561 639.226617,160.194985 639.62756,160.194985 C640.058763,160.194985 640.39635,160.512561 640.39635,160.886912 L640.39635,172.254027 C640.39635,176.763971 636.483372,180.439167 631.643685,180.439167 C626.864518,180.439167 622.950594,176.763971 622.950594,172.254027 L622.950594,160.886912 Z M605.744081,179.018942 C610.487314,179.018942 614.4958,175.114878 614.527951,170.169376 C614.4958,165.170648 610.487314,161.350857 605.744081,161.350857 C600.841037,161.350857 596.835388,165.170648 596.835388,170.169376 C596.835388,175.114878 600.841037,179.018942 605.744081,179.018942 L605.744081,179.018942 Z M605.744081,159.904908 C611.506693,159.904908 616.038107,164.504447 616.068367,170.169376 C616.038107,175.839627 611.506693,180.439167 605.744081,180.439167 C599.917166,180.439167 595.355492,175.839627 595.324286,170.169376 C595.355492,164.504447 599.917166,159.904908 605.744081,159.904908 L605.744081,159.904908 Z M566.908385,160.886912 C566.908385,160.512561 567.246918,160.194985 567.645969,160.194985 L567.709326,160.194985 L578.744719,160.194985 C579.175922,160.194985 579.48514,160.512561 579.48514,160.886912 C579.48514,161.294971 579.175922,161.612548 578.744719,161.612548 L568.41665,161.612548 L568.41665,169.62027 L577.450165,169.62027 C577.849216,169.62027 578.190586,169.937847 578.190586,170.345019 C578.190586,170.720256 577.849216,171.040494 577.450165,171.040494 L568.41665,171.040494 L568.41665,179.018942 L578.744719,179.018942 C579.175922,179.018942 579.48514,179.338293 579.48514,179.74103 C579.48514,180.116267 579.175922,180.439167 578.744719,180.439167 L567.740532,180.439167 L567.645969,180.439167 L567.584504,180.439167 C567.214766,180.406344 566.908385,180.116267 566.908385,179.74103 L566.908385,160.886912 Z M549.579887,180.439167 L549.519367,180.439167 C549.119369,180.439167 548.776109,180.116267 548.776109,179.74103 L548.776109,160.886912 C548.776109,160.512561 549.119369,160.194985 549.519367,160.194985 C549.948679,160.194985 550.289102,160.512561 550.289102,160.886912 L550.289102,179.018942 L560.612443,179.018942 C561.046483,179.018942 561.384069,179.338293 561.384069,179.74103 C561.384069,180.116267 561.046483,180.439167 560.612443,180.439167 L549.579887,180.439167 Z M526.320455,176.64865 C526.568208,176.358573 526.999411,176.329299 527.277423,176.563489 C528.878359,177.776135 531.561085,179.191924 534.366741,179.165312 C536.24569,179.165312 537.943079,178.643705 539.113757,177.833796 C540.314695,177.024774 540.962445,175.956723 540.962445,174.826576 C540.962445,173.668929 540.377106,172.803133 539.204537,172.04911 C538.034804,171.32791 536.309046,170.776142 534.213551,170.400905 L534.15114,170.400905 C532.146424,170.054055 530.392298,169.53511 529.063701,168.695927 C527.739832,167.886904 526.84622,166.672484 526.84622,165.170648 C526.84622,163.63599 527.739832,162.307136 529.097743,161.380131 C530.450926,160.453127 532.271246,159.904908 534.30433,159.904908 C537.140247,159.904908 539.266948,161.204488 540.962445,162.248588 C541.271663,162.450844 541.364334,162.826081 541.148733,163.14277 C540.962445,163.433734 540.533134,163.521556 540.22297,163.316639 C538.528418,162.277862 536.676893,161.177876 534.30433,161.177876 C532.546421,161.177876 530.976691,161.670208 529.895847,162.392296 C528.816894,163.14277 528.203186,164.12921 528.203186,165.170648 C528.231554,166.181926 528.725168,166.933287 529.804122,167.625214 C530.883075,168.320689 532.484956,168.813022 534.426315,169.159872 L534.488726,169.159872 C536.648524,169.53511 538.557732,170.113489 539.977109,171.01122 C541.393648,171.876129 542.349671,173.204983 542.349671,174.826576 C542.349671,176.447281 541.364334,177.892344 539.913752,178.875235 C538.466007,179.858125 536.523702,180.465779 534.366741,180.465779 C531.067471,180.439167 528.203186,178.875235 526.41218,177.54638 C526.136059,177.31219 526.105799,176.907679 526.320455,176.64865 L526.320455,176.64865 Z M504.952265,176.64865 C505.199072,176.358573 505.630275,176.329299 505.908287,176.563489 C507.513005,177.776135 510.192894,179.191924 512.997605,179.165312 C514.877499,179.165312 516.572997,178.643705 517.744621,177.833796 C518.948396,177.024774 519.596146,175.956723 519.596146,174.826576 C519.596146,173.668929 519.010807,172.803133 517.836346,172.04911 C516.665668,171.32791 514.93991,170.776142 512.841578,170.400905 L512.782004,170.400905 C510.778234,170.054055 509.020325,169.53511 507.694565,168.695927 C506.371641,167.886904 505.474247,166.672484 505.474247,165.170648 C505.474247,163.63599 506.371641,162.307136 507.72577,161.380131 C509.082736,160.453127 510.900219,159.904908 512.938031,159.904908 C515.773948,159.904908 517.897812,161.204488 519.596146,162.248588 C519.902527,162.450844 519.996144,162.826081 519.777706,163.14277 C519.596146,163.433734 519.161161,163.521556 518.85478,163.316639 C517.160228,162.277862 515.308702,161.177876 512.938031,161.177876 C511.178231,161.177876 509.605664,161.670208 508.526711,162.392296 C507.450595,163.14277 506.832159,164.12921 506.832159,165.170648 C506.865255,166.181926 507.356978,166.933287 508.435931,167.625214 C509.514884,168.320689 511.11582,168.813022 513.060962,169.159872 L513.11959,169.159872 C515.278442,169.53511 517.188596,170.113489 518.607973,171.01122 C520.024513,171.876129 520.981481,173.204983 520.981481,174.826576 C520.981481,176.447281 519.996144,177.892344 518.545562,178.875235 C517.096871,179.858125 515.155512,180.465779 512.997605,180.465779 C509.701172,180.439167 506.832159,178.875235 505.043044,177.54638 C504.766923,177.31219 504.736663,176.907679 504.952265,176.64865 L504.952265,176.64865 Z M487.581213,173.786024 L496.303618,173.786024 L491.959437,162.914789 L487.581213,173.786024 Z M496.859643,175.2027 L487.028025,175.2027 L485.115034,179.972559 C484.992104,180.262637 484.714091,180.439167 484.404873,180.439167 C484.345299,180.439167 484.220477,180.406344 484.129698,180.406344 C483.75996,180.262637 483.544358,179.828852 483.697549,179.482001 L491.18781,160.714817 C491.312632,160.453127 491.62185,160.280145 491.925394,160.280145 C492.266763,160.280145 492.573145,160.453127 492.665815,160.714817 L500.157968,179.482001 C500.311158,179.828852 500.127708,180.262637 499.75797,180.406344 C499.634094,180.406344 499.573574,180.439167 499.479958,180.439167 C499.201945,180.439167 498.891782,180.262637 498.770742,179.972559 L496.859643,175.2027 Z M475.863082,171.01122 L464.767169,171.01122 L464.767169,179.74103 C464.767169,180.116267 464.426745,180.439167 463.995542,180.439167 C463.594599,180.439167 463.257013,180.116267 463.257013,179.74103 L463.257013,160.886912 C463.257013,160.512561 463.594599,160.194985 463.995542,160.194985 C464.426745,160.194985 464.767169,160.512561 464.767169,160.886912 L464.767169,169.62027 L475.863082,169.62027 L475.863082,160.886912 C475.863082,160.512561 476.203505,160.194985 476.603503,160.194985 C477.034706,160.194985 477.373238,160.512561 477.373238,160.886912 L477.373238,179.74103 C477.373238,180.116267 477.034706,180.439167 476.603503,180.439167 C476.203505,180.439167 475.863082,180.116267 475.863082,179.74103 L475.863082,171.01122 Z M433.884143,160.886912 C433.884143,160.512561 434.223621,160.194985 434.624564,160.194985 L434.684138,160.194985 L445.720477,160.194985 C446.15168,160.194985 446.460898,160.512561 446.460898,160.886912 C446.460898,161.294971 446.15168,161.612548 445.720477,161.612548 L435.393354,161.612548 L435.393354,169.62027 L444.425923,169.62027 C444.826866,169.62027 445.166344,169.937847 445.166344,170.345019 C445.166344,170.720256 444.826866,171.040494 444.425923,171.040494 L435.393354,171.040494 L435.393354,179.018942 L445.720477,179.018942 C446.15168,179.018942 446.460898,179.338293 446.460898,179.74103 C446.460898,180.116267 446.15168,180.439167 445.720477,180.439167 L434.71629,180.439167 L434.624564,180.439167 L434.561208,180.439167 C434.19147,180.406344 433.884143,180.116267 433.884143,179.74103 L433.884143,160.886912 Z M423.973093,171.01122 L412.87718,171.01122 L412.87718,179.74103 C412.87718,180.116267 412.537702,180.439167 412.107445,180.439167 C411.707447,180.439167 411.36797,180.116267 411.36797,179.74103 L411.36797,160.886912 C411.36797,160.512561 411.707447,160.194985 412.107445,160.194985 C412.537702,160.194985 412.87718,160.512561 412.87718,160.886912 L412.87718,169.62027 L423.973093,169.62027 L423.973093,160.886912 C423.973093,160.512561 424.315408,160.194985 424.715405,160.194985 C425.147554,160.194985 425.485141,160.512561 425.485141,160.886912 L425.485141,179.74103 C425.485141,180.116267 425.147554,180.439167 424.715405,180.439167 C424.315408,180.439167 423.973093,180.116267 423.973093,179.74103 L423.973093,171.01122 Z M396.668296,161.612548 L390.165263,161.612548 C389.76432,161.612548 389.426733,161.294971 389.426733,160.886912 C389.426733,160.512561 389.76432,160.194985 390.165263,160.194985 L404.653117,160.194985 C405.055006,160.194985 405.392593,160.512561 405.392593,160.886912 C405.392593,161.294971 405.055006,161.612548 404.653117,161.612548 L398.148193,161.612548 L398.148193,179.74103 C398.148193,180.116267 397.80966,180.439167 397.408717,180.439167 C397.007774,180.439167 396.668296,180.116267 396.668296,179.74103 L396.668296,161.612548 Z M361.717211,160.886912 C361.717211,160.512561 362.056689,160.194985 362.456686,160.194985 L362.518151,160.194985 L373.55449,160.194985 C373.984748,160.194985 374.293966,160.512561 374.293966,160.886912 C374.293966,161.294971 373.984748,161.612548 373.55449,161.612548 L363.227367,161.612548 L363.227367,169.62027 L372.259936,169.62027 C372.659933,169.62027 372.999411,169.937847 372.999411,170.345019 C372.999411,170.720256 372.659933,171.040494 372.259936,171.040494 L363.227367,171.040494 L363.227367,179.018942 L373.55449,179.018942 C373.984748,179.018942 374.293966,179.338293 374.293966,179.74103 C374.293966,180.116267 373.984748,180.439167 373.55449,180.439167 L362.549357,180.439167 L362.456686,180.439167 L362.394275,180.439167 C362.025483,180.406344 361.717211,180.116267 361.717211,179.74103 L361.717211,160.886912 Z M339.602926,160.97562 C339.602926,160.571109 339.940512,160.254419 340.341456,160.254419 C340.773604,160.254419 341.113082,160.571109 341.113082,160.97562 L341.113082,172.686038 L354.1513,160.453127 C354.460518,160.194985 354.953186,160.194985 355.199993,160.453127 C355.508265,160.714817 355.508265,161.177876 355.199993,161.467953 L346.939051,169.21842 L355.384389,179.280633 C355.631196,179.599096 355.568785,180.004495 355.262404,180.29191 C355.108268,180.406344 354.953186,180.439167 354.766899,180.439167 C354.552243,180.439167 354.367847,180.379732 354.213711,180.175702 L345.858207,170.227924 L341.113082,174.682868 L341.113082,179.74103 C341.113082,180.116267 340.773604,180.439167 340.341456,180.439167 C339.940512,180.439167 339.602926,180.116267 339.602926,179.74103 L339.602926,160.97562 Z M321.443226,173.786024 L330.165632,173.786024 L325.819559,162.914789 L321.443226,173.786024 Z M330.720711,175.2027 L320.886256,175.2027 L318.976102,179.972559 C318.852226,180.262637 318.575159,180.439167 318.265941,180.439167 C318.205421,180.439167 318.082491,180.406344 317.98982,180.406344 C317.619136,180.262637 317.404481,179.828852 317.557671,179.482001 L325.048878,160.714817 C325.171809,160.453127 325.481972,160.280145 325.788353,160.280145 C326.127831,160.280145 326.435158,160.453127 326.527829,160.714817 L334.01809,179.482001 C334.173172,179.828852 333.98783,180.262637 333.618093,180.406344 C333.495162,180.406344 333.433697,180.439167 333.34008,180.439167 C333.063013,180.439167 332.754741,180.262637 332.63181,179.972559 L330.720711,175.2027 Z M307.312817,161.612548 L300.809783,161.612548 C300.409786,161.612548 300.069362,161.294971 300.069362,160.886912 C300.069362,160.512561 300.409786,160.194985 300.809783,160.194985 L315.297638,160.194985 C315.699527,160.194985 316.037113,160.512561 316.037113,160.886912 C316.037113,161.294971 315.699527,161.612548 315.297638,161.612548 L308.793659,161.612548 L308.793659,179.74103 C308.793659,180.116267 308.454181,180.439167 308.053238,180.439167 C307.65324,180.439167 307.312817,180.116267 307.312817,179.74103 L307.312817,161.612548 Z" id="path-5"></path>
        <filter x="-0.7%" y="-9.7%" width="101.4%" height="138.9%" filterUnits="objectBoundingBox" id="filter-6">
            <feOffset dx="0" dy="2" in="SourceAlpha" result="shadowOffsetOuter1"></feOffset>
            <feGaussianBlur stdDeviation="1" in="shadowOffsetOuter1" result="shadowBlurOuter1"></feGaussianBlur>
            <feColorMatrix values="0 0 0 0 0   0 0 0 0 0   0 0 0 0 0  0 0 0 0.5 0" type="matrix" in="shadowBlurOuter1"></feColorMatrix>
        </filter>
        <polygon id="path-7" points="274.045598 236.851871 276.70752 236.851871 276.70752 1.91699211 274.045598 1.91699211"></polygon>
        <filter x="-150.3%" y="-0.9%" width="400.5%" height="103.4%" filterUnits="objectBoundingBox" id="filter-8">
            <feOffset dx="0" dy="2" in="SourceAlpha" result="shadowOffsetOuter1"></feOffset>
            <feGaussianBlur stdDeviation="1" in="shadowOffsetOuter1" result="shadowBlurOuter1"></feGaussianBlur>
            <feColorMatrix values="0 0 0 0 0   0 0 0 0 0   0 0 0 0 0  0 0 0 0.5 0" type="matrix" in="shadowBlurOuter1"></feColorMatrix>
        </filter>
    </defs>
    <g id="Welcome" stroke="none" stroke-width="1" fill="none" fill-rule="evenodd">
        <g id="Landing" transform="translate(-292.000000, -371.000000)">
            <g id="hero" transform="translate(-153.000000, -265.000000)">
                <g id="Big-Logo" transform="translate(445.000000, 636.000000)">
                    <path d="M80.54403,183.393044 L80.4277344,183.300781 L79.9648437,182.185059 L79.9321289,181.217285 L80.2099609,180.157227 L81.7333984,179.351562 L83.2890625,179.226562 L85.0668945,179.319336 L87.1459961,179.536621 L88.9287555,179.781193 L88.9501953,179.656738 L90.3671875,180.152344 L90.4385099,180.192329 L91.4516602,180.532227 L91.6830022,180.72248 L92.0708008,180.805176 L93.9599609,179.351074 L95.6738281,177.586914 L97.6552734,176.091797 L99.6694336,174.318359 L101.679199,172.308594 L103.720703,170.35498 L105.332031,168.650879 L106.883301,167.187988 L108.406738,165.854492 L109.739746,164.891602 L111.17041,164.831055 L112.59668,165.206055 L113.772949,166.104492 L114.083008,166.882324 L113.990234,167.638672 L111.666016,170.268555 L108.452148,175.27832 L106.396484,178.695312 L104.785156,181.37207 L104.165039,183.362305 L108.073242,184.84375 L112.944336,186.381836 L115.795898,187.37207 L117.416992,187.62207 L120.704102,185.010742 L123.06543,182.649414 L124.685547,182.464844 L125.435547,183.9375 L123.445312,186.798828 L122.333984,188.604492 L122.768555,190.780273 L122.268555,192.400391 L120.768555,192.900391 L120.914448,194.961803 C121.773019,194.987205 122.634935,195 123.5,195 C168.511207,195 205,160.359485 205,117.628245 C205,74.8970043 168.511207,40.2564895 123.5,40.2564895 C78.4887929,40.2564895 42,74.8970043 42,117.628245 C42,145.393453 57.4053078,169.742816 80.54403,183.393044 Z M84.2191671,185.436675 C86.528684,186.645024 88.9065533,187.750126 91.3458724,188.745426 L90.8530273,187.546875 L89.6630859,187.106934 L87.7416992,186.671875 L87.8166364,186.236876 L86.5761719,186.148437 L84.8076172,185.592773 L84.2191616,185.436672 Z M117.018402,194.758893 L116.064941,191.838867 L112.166016,191.033203 L107.878418,190.260254 L104.141602,189.764648 L102.743164,189.671875 L102.183105,191.186035 L102.117276,192.309636 C106.922544,193.54667 111.904107,194.376874 117.018402,194.758893 Z M124.206976,233.485057 C55.6093572,233.485057 0,181.441504 0,117.242529 C0,53.0435527 55.6093572,1 124.206976,1 C192.804594,1 248.413951,53.0435527 248.413951,117.242529 C248.413951,181.441504 192.804594,233.485057 124.206976,233.485057 Z" id="Combined-Shape" fill="#098797"></path>
                    <g id="Group-91" transform="translate(0.000000, 0.064757)">
                        <path d="M110.775395,164.055404 L110.775395,164.055404 C109.824101,164.055404 108.918196,164.429754 108.083213,165.171358 C107.870449,165.360307 107.182037,166.014976 105.766443,167.359798 C102.442586,170.512501 93.8156885,178.704737 92.052106,179.930689 C91.8544712,179.901415 91.5594376,179.815368 91.3305974,179.748836 C91.1216152,179.688515 90.9173612,179.633515 90.7376932,179.597145 C89.5462112,179.328358 88.2630039,179.052474 86.9476456,178.857315 L86.7225879,178.82538 C85.8337044,178.694092 84.8266184,178.545061 83.8034569,178.545061 C82.7424705,178.545061 81.8498046,178.704737 81.0649394,179.033845 C79.7070281,179.603354 79.2474565,180.477134 79.1075046,181.106078 C78.8786644,182.224693 79.3997014,183.378791 80.5278269,184.298699 C82.5448358,185.946904 85.219051,186.541251 87.5812114,187.065519 C88.3897171,187.246484 89.1518874,187.414144 89.8724503,187.617286 C89.9414806,187.639463 90.0275321,187.658092 90.1154748,187.677608 C91.1528207,189.739195 94.9466508,200.97857 96.2326949,204.792152 C96.8114148,206.512211 97.095101,207.34962 97.1924999,207.602439 C97.9896581,209.67822 99.5905939,210.111117 100.791532,210.111117 C101.241648,210.111117 101.715404,210.05257 102.244006,209.934587 C103.978274,209.530963 104.167398,208.638555 103.919645,207.424135 L103.90357,207.351394 C103.497899,205.31021 102.11351,192.83335 102.970242,190.248382 C105.061955,190.316688 110.548446,191.258773 115.42974,192.231019 L115.431631,192.231019 C115.73423,192.991251 116.016025,193.798499 116.286472,194.581796 L116.333753,194.718407 C116.529497,195.281706 116.715784,195.845006 116.903017,196.408305 C117.195214,197.298939 117.499704,198.220621 117.84391,199.124561 C118.191898,200.055114 118.975818,200.590914 119.989523,200.590914 C120.224037,200.590914 120.466116,200.560753 120.728053,200.50398 C121.314338,200.369143 122.251448,199.949551 121.994239,198.649971 C121.689749,197.159667 121.613154,195.586864 121.561145,194.228736 C121.560199,194.107205 121.549797,193.963497 121.542232,193.803822 C121.528993,193.629066 121.511972,193.343424 121.5167,193.098589 C122.631587,192.821818 123.044823,192.040295 123.18383,191.665945 C123.501558,190.799263 123.271772,189.915725 122.584306,189.224686 C122.622131,189.143074 122.675086,189.041059 122.745062,188.907996 C123.029693,188.377519 123.379573,187.802687 123.844818,187.105438 L124.069876,186.755926 C124.549306,186.014323 125.04292,185.252316 125.583815,184.589663 C126.461351,183.533144 125.841969,182.758718 125.396582,182.387916 C124.856633,181.955019 124.299662,181.73857 123.729453,181.73857 C123.330401,181.73857 122.728986,181.849455 122.134191,182.375497 C121.431595,182.998231 120.749802,183.6529 120.093541,184.287167 C119.660447,184.705871 119.228298,185.121914 118.786694,185.529087 C118.535158,185.766826 118.242962,186.001903 117.934689,186.256497 C117.643438,186.492462 117.326655,186.752378 117.016492,187.027374 L116.334699,186.825119 C112.661908,185.725133 106.707335,183.94209 104.815148,183.091375 C105.293632,180.442537 112.582476,169.904847 113.936605,168.256642 L113.988614,168.192772 C114.795229,167.220526 115.058111,166.347633 113.711547,165.254744 C112.721483,164.446609 111.759786,164.055404 110.775395,164.055404 M110.775395,165.323937 C111.438275,165.323937 112.113448,165.637078 112.826446,166.216345 C113.499728,166.761902 113.417459,166.809805 112.867108,167.480442 C112.177751,168.317851 101.710675,182.793314 103.68324,183.960719 C105.2142,184.876192 112.851033,187.108986 117.395686,188.472437 C118.140835,187.705108 119.103476,187.030923 119.736097,186.436575 C120.855712,185.400459 121.918589,184.30757 123.066573,183.300727 C123.288794,183.100246 123.507232,183.007989 123.729453,183.007989 C123.977205,183.007989 124.232523,183.125972 124.499188,183.338872 C124.750723,183.549111 124.719518,183.564192 124.508644,183.817011 C123.841036,184.636678 123.270827,185.551264 122.695889,186.435688 C122.28549,187.052213 121.886438,187.686479 121.535613,188.341148 C121.24909,188.877835 121.068476,189.231782 121.147908,189.748066 C121.711498,190.08782 122.139864,190.609426 121.904405,191.25345 C121.710553,191.780379 121.200863,191.92941 120.638219,191.92941 C120.589992,191.92941 120.543657,191.925861 120.492593,191.924087 C120.454768,191.972877 120.409379,192.026102 120.370608,192.093521 C120.041532,192.665691 120.192831,193.661888 120.210798,194.272203 C120.265644,195.786458 120.353587,197.364584 120.657131,198.854887 C120.716705,199.160932 120.734672,199.195528 120.41127,199.268269 C120.259025,199.302866 120.118127,199.320607 119.989523,199.320607 C119.572504,199.320607 119.283144,199.129884 119.118606,198.693438 C118.568255,197.257246 118.131378,195.779361 117.620743,194.323654 C117.32571,193.472939 117.028785,192.616901 116.691198,191.76796 C116.605147,191.56393 116.469923,191.345707 116.404675,191.129258 C112.042527,190.246608 105.097889,188.975414 102.747076,188.975414 C102.612798,188.975414 102.488921,188.978963 102.384903,188.986947 C100.070969,189.190089 102.366936,206.545033 102.573082,207.59002 C102.742348,208.422106 102.788683,208.496621 101.926277,208.698877 C101.514932,208.792908 101.137629,208.842585 100.791532,208.842585 C99.6823191,208.842585 98.9154208,208.333398 98.4681422,207.177525 C98.0322111,206.026975 91.8752749,187.268662 91.0327269,186.65746 C90.8237447,186.503107 90.5003424,186.472059 90.262046,186.401979 C87.3466975,185.577876 83.8053481,185.289574 81.4176559,183.338872 C80.6923649,182.746299 80.2970954,182.020663 80.4304279,181.372203 C80.5353918,180.908257 80.9022926,180.49044 81.6171819,180.194153 C82.2866813,179.910286 83.0365585,179.815368 83.8034569,179.815368 C84.8020323,179.815368 85.8270851,179.979479 86.7386634,180.113429 C87.9831002,180.297055 89.2067334,180.559633 90.4322578,180.831968 C90.9239805,180.939305 91.6265767,181.211641 92.1901666,181.211641 C92.2733812,181.211641 92.3556502,181.206318 92.4331911,181.190351 C93.4818844,181.003176 108.064301,166.934884 109.011813,166.09304 C109.602826,165.571433 110.183437,165.323937 110.775395,165.323937" id="Fill-2" fill="#FEFEFE"></path>
                        <g id="Group-6">
                            <mask id="mask-2" fill="white">
                                <use xlink:href="#path-1"></use>
                            </mask>
                            <g id="Clip-5"></g>
                            <path d="M129.748707,232.806228 C63.2999421,235.049668 6.14190081,186.795756 1.73152601,124.514359 C-2.67317507,62.2870744 49.6016811,7.77743481 115.179529,2.75120746 C181.424039,-2.32824502 240.366467,45.8325225 246.720092,107.284494 C253.135183,169.334362 202.737384,225.387531 137.325019,232.281073 C134.807777,232.548086 132.278242,232.686472 129.748707,232.806228 C128.663134,232.86034 128.656515,234.447337 129.748707,234.394999 C189.243377,231.537696 239.04638,189.280483 247.703538,133.920128 C256.308686,78.8986404 220.081958,25.4499553 164.716813,7.14316856 C108.09683,-11.5814355 44.506677,12.7202761 15.3730498,61.2039428 C-14.125587,110.297037 0.258249005,173.351086 46.2910632,208.626047 C69.6743711,226.542516 99.7044467,235.410712 129.748707,234.394999 C130.83617,234.356854 130.839007,232.771632 129.748707,232.806228" id="Fill-4" fill="#FEFEFE" mask="url(#mask-2)"></path>
                        </g>
                        <path d="M34.9026698,92.1914416 C35.4378911,90.4917855 34.4062189,88.7140658 32.581171,88.187137 C30.7617969,87.7036753 28.8450238,88.6626149 28.3098025,90.3675935 L27.1826226,93.9478712 L33.7745443,95.7761548 L34.9026698,92.1914416 Z M26.9358156,90.9646022 C27.3802573,89.5488135 26.5187969,88.0664933 25.0341725,87.6539985 C23.5060495,87.2308586 21.9211892,88.0381066 21.4786388,89.4503469 L20.6332539,92.1337811 L26.0913764,93.6480363 L26.9358156,90.9646022 Z M19.7708478,92.9853833 C19.4871616,92.9064327 19.3197868,92.6163557 19.4011101,92.3475687 L19.4200226,92.2890211 L20.4081962,89.1531733 C21.0275777,87.1891656 23.2327651,86.0634539 25.351901,86.6489304 C26.550948,86.9833617 27.4464508,87.8340769 27.8880556,88.8444674 C28.9849756,87.390534 30.9755071,86.6507046 32.8970083,87.182956 C35.3196885,87.8527057 36.6813822,90.2363048 35.9712211,92.4895024 L34.7012526,96.5204197 L34.6813945,96.5834027 L34.6747752,96.6038057 C34.5934518,96.8708185 34.2880163,97.0083168 34.0043301,96.9302532 L19.7708478,92.9853833 Z" id="Fill-7" fill="#FEFEFE"></path>
                        <path d="M30.5467627,67.8658674 C30.2971189,67.7194983 30.2157955,67.3983733 30.3727685,67.1606343 L30.3973547,67.1242638 L34.694255,60.6396676 C34.8616298,60.3868482 35.1954339,60.3283005 35.4460234,60.4737826 C35.7164709,60.6325709 35.8072505,60.9377284 35.6408213,61.1914349 L31.6181509,67.2582137 L36.9656358,70.378094 L40.4842903,65.0715476 C40.6393721,64.8391311 40.9845237,64.7646159 41.2559168,64.9180818 C41.5055607,65.0644509 41.5849928,65.3882371 41.429911,65.625089 L37.9122021,70.9307483 L43.2388833,74.0408707 L47.2634449,67.9705435 C47.4308198,67.716837 47.7627326,67.6618377 48.0341257,67.8170777 C48.2856608,67.9661081 48.3773861,68.2712655 48.2100112,68.524085 L43.9235127,74.9891652 L43.8866335,75.0459387 L43.8620474,75.079648 C43.698455,75.2845648 43.3854545,75.3546445 43.1358107,75.2082754 L30.5467627,67.8658674 Z" id="Fill-9" fill="#FEFEFE"></path>
                        <path d="M51.4279583,44.052319 L47.8875545,47.0959099 C47.6691162,47.2813108 47.3163997,47.2671174 47.1007981,47.0471202 C46.9022178,46.8422034 46.9173477,46.5130946 47.1357861,46.3250325 L55.01848,39.547698 C55.2369184,39.3622971 55.5886893,39.3773776 55.7901065,39.5822944 C56.0047624,39.8014045 55.9905781,40.1331746 55.7711941,40.3185755 L52.2326815,43.3621664 L61.8666649,53.2265589 C62.0680821,53.4314757 62.0510609,53.7632457 61.8345138,53.9513079 C61.6141842,54.1367088 61.2624133,54.1216283 61.0628873,53.9167115 L51.4279583,44.052319 Z" id="Fill-11" fill="#FEFEFE"></path>
                        <path d="M67.2999176,31.3151883 L78.4260904,40.2791889 L77.7698296,30.5540688 C77.7792858,30.3367328 77.9012709,30.1344773 78.0847213,30.049317 C78.3078878,29.9419797 78.5509123,29.9712535 78.7447645,30.0954455 L86.6198935,36.4407692 L85.6610341,22.7113445 C85.6600885,22.4257029 85.8633969,22.1853027 86.2094941,22.1657868 C86.5045277,22.1480451 86.7787577,22.3778003 86.7778121,22.6625548 L87.807593,37.5753518 C87.8189405,37.784704 87.6960098,37.9869595 87.5636229,38.0730068 L87.5239068,38.0925227 L87.4624415,38.1217965 C87.3801725,38.158167 87.2884473,38.1776829 87.1778097,38.158167 C87.1466042,38.1484091 87.0964863,38.1484091 87.0558246,38.1191353 C87.0255647,38.1120386 86.9527519,38.0730068 86.9130359,38.0428459 C86.9016884,38.02333 86.8931778,38.0047012 86.862918,37.9967175 L78.9471274,31.6247812 L79.6043337,41.398691 C79.6232461,41.4359486 79.6232461,41.482077 79.6137899,41.5140121 C79.6251374,41.5769952 79.6043337,41.6355428 79.5844757,41.6940905 C79.563672,41.7038484 79.5532702,41.7331223 79.5532702,41.7331223 C79.5012611,41.8280404 79.4104815,41.8936848 79.3093001,41.9407003 C79.1863694,41.999248 79.0643843,42.0090059 78.9528011,41.98949 L78.8903901,41.9699741 L78.8601303,41.9602162 C78.7702963,41.9309424 78.6899185,41.8741689 78.618997,41.7872345 L66.6077232,32.1153395 C66.3637531,31.944132 66.3334932,31.6008299 66.5263999,31.3905906 C66.7098503,31.1590612 67.0767511,31.1324486 67.2999176,31.3151883" id="Fill-13" fill="#FEFEFE"></path>
                        <path d="M105.551881,18.0560963 C105.512165,17.7802127 105.728712,17.5149741 106.020909,17.4786036 L106.066299,17.4706198 L114.140954,16.446923 C114.456791,16.4052299 114.714,16.6101467 114.753716,16.8851433 C114.797214,17.1805428 114.606199,17.4440072 114.290362,17.483039 L106.733907,18.4410915 L107.581183,24.3020665 L114.18918,23.4628834 C114.482323,23.4238517 114.765063,23.6287685 114.806671,23.9232809 C114.846387,24.1991645 114.632676,24.4652902 114.338588,24.5016607 L107.730591,25.3399567 L108.574085,31.1805287 L116.129594,30.2198149 C116.446377,30.1807831 116.703586,30.3856999 116.747084,30.6810994 C116.785855,30.9543218 116.595785,31.215125 116.279948,31.2541568 L108.227988,32.2805149 L108.160849,32.2876116 L108.114513,32.2955953 C107.840283,32.3053533 107.58402,32.1226136 107.544304,31.8493913 L105.551881,18.0560963 Z" id="Fill-15" fill="#FEFEFE"></path>
                        <path d="M133.749628,16.8953448 C133.786507,16.6194611 134.066411,16.4145443 134.359553,16.4518019 L134.405888,16.4562374 L142.484326,17.4222736 C142.801109,17.4613054 142.99307,17.7194473 142.957136,17.995331 C142.915529,18.2925047 142.65832,18.4974215 142.343428,18.4583897 L134.783191,17.5535623 L133.986033,23.4189727 L140.597812,24.2111402 C140.891901,24.2483978 141.109393,24.5109751 141.068732,24.8063747 C141.030907,25.0822583 140.751003,25.2818526 140.455969,25.2481433 L133.84419,24.45775 L133.049868,30.298322 L140.610106,31.2058106 C140.925943,31.2448424 141.120741,31.5029843 141.079133,31.800158 C141.042254,32.0760416 140.7841,32.2809584 140.468262,32.2445879 L132.411574,31.2785516 L132.344435,31.2714549 L132.299045,31.2643583 C132.029544,31.2129073 131.834746,30.97162 131.871625,30.6957364 L133.749628,16.8953448 Z" id="Fill-17" fill="#FEFEFE"></path>
                        <path d="M161.939525,24.618756 L156.707406,35.8270834 C156.588258,36.0799028 156.258236,36.2023206 155.986843,36.0905478 C155.71545,35.9752267 155.5859,35.668295 155.705994,35.4119273 L161.569788,22.857891 C161.599102,22.6361196 161.752292,22.4649121 162.002882,22.4063644 C162.29697,22.3646714 162.612807,22.5412014 162.659143,22.816198 L166.127679,37.9481052 L171.333321,26.7992126 C171.452469,26.544619 171.781545,26.4230883 172.052938,26.5357482 C172.345135,26.6546176 172.474685,26.9650976 172.356483,27.217917 L166.46432,39.8358234 C166.346118,40.0895299 166.016096,40.2092865 165.722954,40.0895299 C165.555579,40.0212243 165.45818,39.9112257 165.408062,39.7506632 C165.396715,39.7213894 165.364563,39.6867931 165.361727,39.6388904 L161.939525,24.618756 Z" id="Fill-19" fill="#FEFEFE"></path>
                        <path d="M189.297466,44.5621271 C190.49935,45.5077604 192.295084,45.3622784 193.28704,44.2472117 C194.309256,43.1037583 194.152283,41.4209568 192.948507,40.4753235 L190.66767,38.6798621 L187.013792,42.7675528 L189.297466,44.5621271 Z M184.923025,50.9216442 C186.368879,52.0562268 188.515438,51.8805838 189.759875,50.5197944 C190.955139,49.1492471 190.780199,47.1204822 189.332454,45.9814642 L186.284719,43.5836716 L181.871507,48.5220775 L184.923025,50.9216442 Z M190.178785,37.5993918 C190.366963,37.3873783 190.720625,37.3581045 190.94852,37.5364087 L190.998638,37.5798759 L193.666234,39.6751722 C195.339037,40.9898332 195.558421,43.3326264 194.143772,44.9205097 C193.337158,45.8182404 192.152295,46.2493641 190.98729,46.2227515 C191.968844,47.7494259 191.897923,49.7542395 190.612824,51.1930924 C188.992031,53.0071826 186.123963,53.228954 184.206244,51.7191342 L180.77175,49.0197326 L180.721632,48.9789266 L180.703665,48.9665074 C180.476716,48.7882032 180.462532,48.4715136 180.653548,48.2586131 L190.178785,37.5993918 Z" id="Fill-21" fill="#FEFEFE"></path>
                        <path d="M209.83559,58.7819328 L198.966627,65.5424126 C198.71982,65.6958785 198.372777,65.6302341 198.209184,65.3987048 C198.045592,65.1662883 198.115568,64.8425021 198.362375,64.686375 L210.539132,57.1142118 C210.690432,56.940343 210.918326,56.8773599 211.167024,56.9554235 C211.435581,57.0698575 211.598227,57.3776762 211.478134,57.6331569 L205.658784,72.1112819 L216.470065,65.3880597 C216.716872,65.2337068 217.063915,65.3002383 217.226562,65.5317676 C217.401501,65.7819258 217.331526,66.105712 217.085664,66.2618391 L204.851224,73.8677115 C204.605363,74.0220645 204.25832,73.955533 204.08338,73.706262 C203.980307,73.5652153 203.962341,73.4241687 204.013404,73.2644933 C204.020969,73.2334453 204.013404,73.1864298 204.038936,73.1456238 L209.83559,58.7819328 Z" id="Fill-23" fill="#FEFEFE"></path>
                        <path d="M221.317884,89.5094269 C221.779347,90.9163447 223.372718,91.706738 224.849777,91.2800498 C226.373172,90.8409424 227.216666,89.3479773 226.755203,87.9428336 L225.880504,85.2682703 L220.443185,86.8339765 L221.317884,89.5094269 Z M213.959064,92.6106783 C214.512252,94.3032378 216.417678,95.2533065 218.250291,94.7450064 C220.047915,94.2065454 221.080533,92.411084 220.525454,90.7185246 L219.356667,87.1488919 L212.790277,89.0419327 L213.959064,92.6106783 Z M226.097051,84.1123977 C226.3779,84.0316729 226.691846,84.1886871 226.778843,84.4539257 L226.797756,84.5124733 L227.821863,87.636789 C228.462994,89.5928129 227.286642,91.6721417 225.178853,92.2797954 C223.981697,92.6266459 222.736315,92.3818102 221.772728,91.7652857 C221.713153,93.5483279 220.492357,95.1938718 218.579367,95.7447519 C216.164251,96.4384529 213.627151,95.1619367 212.892404,92.9193841 L211.5761,88.8982248 L211.556242,88.8387901 L211.549623,88.8219355 C211.463571,88.5531485 211.635674,88.2825874 211.91936,88.1992013 L226.097051,84.1123977 Z" id="Fill-25" fill="#FEFEFE"></path>
                        <path d="M24.1430195,146.376053 C23.9529498,146.428391 23.7061428,146.301538 23.6503512,146.123234 L23.3553175,145.18381 L17.6806479,146.750403 C17.2995628,146.857741 17.2201306,147.266687 17.2768679,147.444991 C17.3317139,147.62507 17.1860883,147.874341 16.9950729,147.930227 C16.8040575,147.982565 16.5534681,147.839744 16.4967308,147.66144 C16.2688362,146.930482 16.6659969,146.219926 17.446134,146.003477 L23.1226948,144.436884 L22.8361718,143.527621 C22.7236429,143.171013 22.9156039,143.118674 23.1037824,143.065449 C23.2957434,143.011337 23.4867588,142.958999 23.5992877,143.316495 L23.8858107,144.225757 L26.7775187,143.429154 C26.9685341,143.375042 27.2153411,143.501895 27.2701871,143.681974 C27.3316524,143.87802 27.2039937,144.123743 27.011087,144.174306 L24.1184334,144.974458 L24.4134671,145.913881 C24.4702043,146.092186 24.3349805,146.325489 24.1430195,146.376053" id="Fill-27" fill="#FEFEFE"></path>
                        <path d="M24.3337512,157.021081 C26.0301947,156.395686 26.8840902,154.690707 26.2703824,153.230564 C25.6632939,151.783727 23.7928562,151.066075 22.0973584,151.695019 C20.3990236,152.322188 19.5678231,154.034264 20.1749115,155.482874 C20.789565,156.943017 22.6363621,157.650025 24.3337512,157.021081 M28.0358562,156.456007 L21.2160399,158.977105 C21.0155683,159.049846 20.7791631,158.953154 20.699731,158.765978 C20.6202989,158.577029 20.7243171,158.355258 20.9247887,158.282517 L22.0500773,157.868248 C20.9011482,157.589703 19.8902797,156.841003 19.4363818,155.756097 C18.6496254,153.885233 19.7361435,151.765985 21.8061072,150.998656 C23.8722884,150.238424 26.2108083,151.093575 26.9947278,152.961777 C27.4524082,154.045796 27.2727403,155.23449 26.6316095,156.170366 L27.7427137,155.761419 C27.9592609,155.679807 28.1814817,155.782709 28.2609139,155.970772 C28.3384548,156.157947 28.2514577,156.374395 28.0358562,156.456007" id="Fill-29" fill="#FEFEFE"></path>
                        <path d="M33.129631,159.053394 C33.3206464,158.96025 33.5665078,159.034765 33.6648523,159.211295 C33.7726531,159.406454 33.6951122,159.635322 33.5040968,159.732902 L26.5774254,163.123343 L33.0530357,165.042997 C33.2780935,165.110415 33.3858942,165.302913 33.314027,165.512265 C33.2582354,165.713633 33.0388514,165.820971 32.8137937,165.757101 L28.5840325,164.510745 L26.6455101,168.792708 C26.5528393,168.994963 26.3362921,169.085446 26.1150169,169.01714 C26.0157267,168.978109 25.955207,168.903593 25.9173822,168.833514 C25.8634818,168.735047 25.8313307,168.611742 25.9041435,168.507953 L27.8001129,164.279216 L25.5608832,163.615676 L23.9155032,164.426472 C23.7244878,164.517842 23.4767352,164.445101 23.3708257,164.252603 C23.2696443,164.070751 23.3471852,163.841883 23.5382006,163.746964 L33.129631,159.053394 Z" id="Fill-31" fill="#FEFEFE"></path>
                        <path d="M32.5839133,170.812424 L35.9730178,175.625751 C37.1001976,174.629554 37.3139079,173.044332 36.4921636,171.872492 C35.6496155,170.681136 34.0326042,170.249125 32.5839133,170.812424 M31.5768273,170.48509 C33.4586124,169.316798 35.9493773,169.752357 37.1550436,171.463545 C38.3068096,173.099331 37.8377818,175.253175 36.1583595,176.480015 L36.1451208,176.486224 L36.1035135,176.514611 C35.9228999,176.623722 35.6978422,176.559852 35.5796396,176.391306 L31.9049577,171.172581 C30.4704511,172.15902 30.1177346,173.941175 31.0406604,175.253175 C31.6354558,176.096794 32.6548349,176.582029 33.7167669,176.538562 C33.9474983,176.526143 34.1120363,176.707108 34.1205469,176.887187 C34.1091995,177.096539 33.9522264,177.269521 33.7224406,177.28194 C32.4118104,177.311214 31.1361681,176.741705 30.3777803,175.66567 C29.1702227,173.950046 29.7243564,171.632091 31.5768273,170.48509" id="Fill-33" fill="#FEFEFE"></path>
                        <path d="M46.6176805,183.545297 C46.4682725,183.668602 46.1855319,183.652634 46.0550363,183.512475 L45.3628419,182.781516 L40.9326091,186.459373 C40.6347386,186.70687 40.7491587,187.112268 40.8806,187.251541 C41.0129868,187.393475 40.9950201,187.675568 40.845612,187.800647 C40.6952583,187.924839 40.4049528,187.895565 40.2735115,187.755406 C39.7335621,187.185897 39.7751694,186.38131 40.3822579,185.880994 L44.8134363,182.198701 L44.1429913,181.489032 C43.8791631,181.207826 44.0285712,181.083634 44.176088,180.962104 C44.3264417,180.837024 44.4739585,180.711058 44.7377867,180.991377 L45.4091773,181.703707 L47.6673195,179.829295 C47.8157819,179.704216 48.0966313,179.721071 48.2280725,179.860343 C48.3708613,180.011148 48.3642419,180.286144 48.2157795,180.411223 L45.9585829,182.285635 L46.6517229,183.020142 C46.7822185,183.158528 46.7642518,183.420218 46.6176805,183.545297" id="Fill-35" fill="#FEFEFE"></path>
                        <path d="M52.1432258,192.473282 C53.1219432,191.499262 52.9384928,190.097666 51.9039838,189.179533 C50.8798766,188.27027 49.3772853,188.179787 48.398568,189.148485 L45.2893672,192.235543 L45.2553249,192.267478 C45.2307387,192.291429 45.2070982,192.291429 45.1966964,192.302074 C45.1617084,192.313606 45.1513066,192.326026 45.1286117,192.329574 C45.0227022,192.362396 44.915847,192.353525 44.8099375,192.302074 C44.8099375,192.302074 44.786297,192.302074 44.7749496,192.291429 L44.7503634,192.270139 L44.7134842,192.237317 C44.629324,192.164576 44.5810973,192.051916 44.5773148,191.942805 C44.5858254,191.88958 44.5962272,191.854983 44.6179765,191.811516 C44.6406714,191.7645 44.6643119,191.745872 44.6974087,191.709501 L47.8085007,188.626878 L47.8983346,188.533734 L52.1233678,184.344029 C52.2718302,184.198547 52.5280934,184.19145 52.6850664,184.329836 C52.8543325,184.478866 52.8618975,184.721927 52.7134351,184.869184 L49.7763373,187.78326 C50.7229036,187.681245 51.7158053,187.963338 52.4609543,188.625104 C53.8226481,189.834202 54.0202828,191.719259 52.7332931,192.996662 L49.6240923,196.078398 C49.4756299,196.225654 49.2184211,196.232751 49.0482094,196.083721 C48.8921819,195.945335 48.884617,195.704935 49.0321338,195.557679 L52.1432258,192.473282 Z" id="Fill-37" fill="#FEFEFE"></path>
                        <path d="M56.6376663,196.406265 L61.5350357,199.900495 C62.2480337,198.608011 61.8905891,197.047628 60.7019439,196.198687 C59.4887126,195.333778 57.807399,195.426035 56.6376663,196.406265 M55.5719518,196.408039 C56.937428,194.725238 59.4414316,194.361532 61.1842105,195.600791 C62.8466116,196.79126 63.1643401,198.969055 62.0116285,200.649196 L62.0002811,200.661615 L61.9719125,200.697985 C61.8404712,200.862096 61.604066,200.869193 61.4357456,200.745001 L56.1251399,196.958919 C55.1171082,198.333015 55.4149788,200.129363 56.7483039,201.079432 C57.6059818,201.690634 58.739781,201.834342 59.7279546,201.461766 C59.9407193,201.380154 60.1563208,201.494588 60.2300792,201.666683 C60.2943814,201.868938 60.2054931,202.080065 59.9946197,202.161677 C58.7681496,202.595462 57.3629573,202.456189 56.2660374,201.672005 C54.5232585,200.432747 54.2282248,198.071325 55.5719518,196.408039" id="Fill-39" fill="#FEFEFE"></path>
                        <path d="M75.8382103,207.799816 C76.5114922,206.625314 75.9431742,205.31154 74.6854987,204.686145 C73.4438987,204.058975 71.9677849,204.341956 71.2954486,205.520006 L69.1602371,209.261733 L69.1365966,209.301652 C69.120521,209.328264 69.0987718,209.338022 69.0902612,209.350441 C69.0600013,209.369957 69.053382,209.385038 69.0297415,209.39036 C68.9389619,209.452456 68.833998,209.468424 68.7176866,209.44536 C68.7176866,209.44536 68.6959374,209.452456 68.6808074,209.44536 L68.6514932,209.428505 L68.6079946,209.406328 C68.5068132,209.355764 68.4254899,209.261733 68.3933388,209.157944 C68.3867194,209.104719 68.387665,209.0648 68.3971212,209.019558 C68.4065774,208.970769 68.4217074,208.943269 68.4453479,208.901576 L70.5796137,205.160736 L70.6420247,205.053398 L73.5431889,199.966849 C73.6453159,199.788545 73.8911773,199.717578 74.0812471,199.812496 C74.2864468,199.91806 74.3611508,200.146928 74.2590238,200.321684 L72.2420149,203.862042 C73.1252246,203.529385 74.1635161,203.556885 75.0703663,204.01196 C76.72142,204.842272 77.4382005,206.611121 76.5559364,208.159972 L74.4188337,211.904361 C74.3204891,212.082665 74.0727365,212.151858 73.8684824,212.048069 C73.6784127,211.953151 73.602763,211.720734 73.7039444,211.54243 L75.8382103,207.799816 Z" id="Fill-41" fill="#FEFEFE"></path>
                        <path d="M86.5526598,213.103257 C87.2297242,211.516261 86.494977,209.764267 84.9403766,209.182339 C83.4009061,208.603959 81.5654564,209.389917 80.888392,210.9778 C80.2094364,212.564796 80.9678242,214.308807 82.506349,214.886299 C84.0609494,215.466453 85.8737042,214.692028 86.5526598,213.103257 M88.6519377,210.187407 L85.9294958,216.571762 C85.8491181,216.758937 85.6117673,216.854743 85.4122413,216.781114 C85.2127153,216.705712 85.1115339,216.483941 85.1919117,216.293217 L85.6401359,215.23936 C84.6358867,215.835481 83.3649726,216.010237 82.2113153,215.577339 C80.2236207,214.832187 79.3243354,212.635763 80.1489167,210.698368 C80.9753891,208.764521 83.2429875,207.756792 85.2297365,208.501944 C86.3833937,208.936616 87.180552,209.86983 87.4689663,210.952962 L87.913408,209.911523 C87.9994595,209.711042 88.2292453,209.631204 88.4306625,209.707493 C88.6311341,209.780234 88.7389348,209.986038 88.6519377,210.187407" id="Fill-43" fill="#FEFEFE"></path>
                        <path d="M91.0655399,216.9305 C91.2385885,216.816066 91.4863411,216.848888 91.6206192,217.032514 C92.0480398,217.547024 92.762929,218.259354 93.7520482,218.524593 C94.3562998,218.686042 94.9378566,218.647897 95.3690596,218.47048 C95.8257944,218.333869 96.1331211,218.057986 96.2324112,217.728877 C96.3222452,217.384688 96.2513237,217.10703 95.9477794,216.686551 C95.6848969,216.358329 95.1827723,216.029221 94.4536988,215.705434 L94.4272214,215.681483 C93.7615044,215.374551 93.1865671,215.054313 92.8319593,214.640044 C92.4196687,214.239969 92.214469,213.666024 92.3875176,213.096515 C92.5643487,212.5137 93.0712014,212.102092 93.6688336,211.888305 C94.2210761,211.713549 94.9350197,211.696694 95.7321779,211.909595 C96.7354814,212.176608 97.319875,212.803777 97.8153802,213.325384 C97.9543865,213.489494 97.9345285,213.729008 97.7737729,213.86207 C97.6120718,213.998682 97.3586455,213.980053 97.2149111,213.8257 C96.7506114,213.31119 96.2919853,212.786035 95.525087,212.580232 C94.8896299,212.408137 94.3279312,212.436524 93.9175318,212.600635 C93.5260449,212.754987 93.2593799,213.007807 93.1686003,213.305868 C93.0778207,213.605703 93.1563072,213.854974 93.3908211,214.160131 C93.6745073,214.478595 94.1444808,214.796172 94.8310014,215.094232 L94.8622069,215.100442 C95.5780417,215.407374 96.120828,215.778175 96.5756716,216.211073 C96.9898534,216.658164 97.1837056,217.321704 96.9964727,217.937342 C96.8092399,218.548544 96.292931,218.944184 95.6536914,219.177488 C94.9983763,219.40813 94.2967257,219.446275 93.5336099,219.241358 C92.2778256,218.890072 91.4598637,218.070405 90.968141,217.421058 C90.8489928,217.244528 90.893437,217.044934 91.0655399,216.9305" id="Fill-45" fill="#FEFEFE"></path>
                        <path d="M100.967323,219.395977 C101.128079,219.264688 101.379614,219.27622 101.532804,219.444767 C102.011288,219.922906 102.795208,220.565156 103.804185,220.742573 C104.426403,220.84991 105.000395,220.759427 105.413631,220.546527 C105.854291,220.371771 106.134194,220.071936 106.200388,219.732182 C106.253343,219.378235 106.154998,219.110335 105.810792,218.716469 C105.516704,218.413973 104.981483,218.127444 104.222149,217.869302 L104.193781,217.847125 C103.499695,217.601403 102.895444,217.337938 102.497337,216.949395 C102.046276,216.589238 101.785285,216.034809 101.900651,215.454655 C102.017908,214.856759 102.479371,214.395475 103.056199,214.137333 C103.587638,213.910239 104.295908,213.831288 105.111978,213.971448 C106.140814,214.153301 106.786673,214.72281 107.335133,215.198287 C107.487378,215.349979 107.492106,215.589492 107.345534,215.736748 C107.197072,215.889327 106.943646,215.891101 106.784781,215.749168 C106.270364,215.280786 105.759729,214.795551 104.975809,214.658939 C104.323331,214.548054 103.768251,214.622569 103.373928,214.825712 C103.000407,215.011112 102.76022,215.286109 102.698755,215.593041 C102.63918,215.901746 102.742253,216.140372 103.007027,216.422466 C103.320973,216.716091 103.823097,216.991088 104.53515,217.225278 L104.568247,217.232375 C105.314341,217.471001 105.89117,217.794787 106.387621,218.183331 C106.846247,218.5976 107.107238,219.243398 106.982416,219.868793 C106.857594,220.497737 106.382893,220.935958 105.769185,221.226922 C105.138456,221.511676 104.442479,221.611917 103.659505,221.475306 C102.375352,221.235792 101.476067,220.492415 100.919096,219.890084 C100.785764,219.721537 100.806568,219.52283 100.967323,219.395977" id="Fill-47" fill="#FEFEFE"></path>
                        <path d="M112.522524,212.122584 C112.54711,211.921216 112.747582,211.769524 112.960346,211.791701 C113.192023,211.815652 113.352779,212.006376 113.328193,212.20597 L112.126309,222.277054 C112.101723,222.478422 111.901251,222.629227 111.671465,222.604388 C111.456809,222.582211 111.295108,222.393262 111.32064,222.19278 L112.522524,212.122584 Z" id="Fill-49" fill="#FEFEFE"></path>
                        <path d="M117.873508,218.742816 L124.021933,218.914023 C123.802549,217.477831 122.543928,216.398248 121.051739,216.357442 C119.527398,216.315749 118.219605,217.303076 117.873508,218.742816 M117.00921,219.32297 C117.078241,217.210819 118.887213,215.551081 121.076325,215.614065 C123.164255,215.670838 124.769919,217.273802 124.872046,219.266196 L124.872046,219.283051 L124.870155,219.330066 C124.864481,219.529661 124.677248,219.664498 124.460701,219.659175 L117.799749,219.470226 C117.830955,221.138834 119.181301,222.434866 120.85505,222.480108 C121.931166,222.51293 122.94298,222.012613 123.517917,221.175205 C123.639902,220.993352 123.890492,220.965852 124.051247,221.066093 C124.22997,221.196495 124.288598,221.412943 124.167559,221.594796 C123.438485,222.616719 122.206342,223.268727 120.832355,223.228808 C118.644188,223.167599 116.943017,221.409395 117.00921,219.32297" id="Fill-51" fill="#FEFEFE"></path>
                        <path d="M138.583451,221.672593 C140.227886,221.472999 141.42315,219.943664 141.187691,218.260862 C140.955068,216.580722 139.382501,215.376059 137.738066,215.577428 C136.092686,215.775248 134.901204,217.318777 135.133827,219.000691 C135.36645,220.685267 136.938071,221.873962 138.583451,221.672593 M137.637831,214.853566 C139.759803,214.591876 141.693598,216.112341 141.97823,218.165944 C142.262861,220.222208 140.808497,222.154281 138.685578,222.414197 C136.580627,222.670565 134.629811,221.149213 134.343288,219.098271 C134.059602,217.044668 135.530988,215.10816 137.637831,214.853566" id="Fill-53" fill="#FEFEFE"></path>
                        <path d="M145.653006,214.033633 C145.597214,213.824281 145.734329,213.630009 145.943312,213.581219 C146.153239,213.533316 146.368841,213.645976 146.424632,213.855328 L147.479,217.885359 C147.811858,219.153004 149.156531,219.917672 150.496475,219.624934 C151.842093,219.297599 152.673294,218.034389 152.340435,216.765857 L151.284177,212.735826 C151.229331,212.526474 151.382522,212.330428 151.575428,212.286961 C151.800486,212.23551 152.017979,212.341073 152.072825,212.555748 L153.128137,216.584004 C153.564069,218.243741 152.487952,219.934527 150.685599,220.348796 C148.914452,220.755968 147.14425,219.726948 146.707373,218.063663 L145.653006,214.033633 Z" id="Fill-55" fill="#FEFEFE"></path>
                        <path d="M159.433252,210.377864 C159.4985,210.55262 159.376515,210.790359 159.187391,210.850681 L158.200163,211.170031 L160.128284,216.416256 C160.258779,216.769316 160.697547,216.823428 160.887617,216.762219 C161.076741,216.700123 161.34908,216.827864 161.413382,217.003507 C161.47863,217.176488 161.338678,217.417776 161.151445,217.481646 C160.383601,217.729143 159.610083,217.385841 159.346255,216.669076 L157.41908,211.421077 L156.463058,211.73067 C156.087646,211.855749 156.021453,211.677444 155.958096,211.502689 C155.890957,211.325271 155.827601,211.146967 156.203012,211.025437 L157.15998,210.715844 L156.17748,208.040393 C156.111287,207.865637 156.235163,207.627898 156.423342,207.567577 C156.625705,207.501932 156.893315,207.612818 156.959509,207.789348 L157.942954,210.464798 L158.929237,210.143673 C159.117415,210.085126 159.369896,210.19956 159.433252,210.377864" id="Fill-57" fill="#FEFEFE"></path>
                        <path d="M175.260862,211.013727 C176.734139,210.296075 177.300566,208.483759 176.474093,206.980149 C175.647621,205.478312 173.733685,204.84582 172.26419,205.55815 C170.790913,206.273141 170.232051,208.097876 171.058524,209.601487 C171.886887,211.106871 173.791367,211.724283 175.260862,211.013727 M171.904854,204.909691 C173.803661,203.989783 176.167712,204.804127 177.178581,206.638621 C178.189449,208.477549 177.523732,210.752037 175.627763,211.671945 C173.743141,212.584756 171.363014,211.777508 170.353091,209.946563 C169.342222,208.110296 170.023069,205.820728 171.904854,204.909691" id="Fill-59" fill="#FEFEFE"></path>
                        <path d="M180.027358,197.153014 C180.141778,197.322447 180.085986,197.556638 179.902536,197.669297 C179.42878,197.951391 179.23871,198.190904 179.204668,198.42953 C179.156441,198.681462 179.242492,199.070893 179.641544,199.661692 L180.102062,200.348296 L181.068486,199.774352 C181.265175,199.654595 181.51671,199.708707 181.633021,199.878141 C181.755952,200.063542 181.70016,200.297732 181.504417,200.417489 L180.537047,200.990546 L184.31291,206.58717 C184.42733,206.758377 184.371539,206.994342 184.189034,207.101679 C183.993291,207.219662 183.742701,207.165549 183.62639,206.992568 L179.849581,201.395944 L178.939894,201.937067 C178.757389,202.044404 178.506799,201.990292 178.381978,201.808439 C178.267557,201.637232 178.323349,201.401267 178.505854,201.293929 L179.416487,200.755468 L178.956915,200.068864 C178.524766,199.405324 178.309165,198.85267 178.392379,198.305338 C178.499235,197.764216 178.922873,197.347285 179.470387,197.023499 C179.651,196.9135 179.902536,196.967613 180.027358,197.153014" id="Fill-61" fill="#FEFEFE"></path>
                        <path d="M195.511896,193.389819 C194.58897,192.36967 193.081651,192.382977 191.992296,193.246111 C190.91618,194.102149 190.649514,195.491325 191.57244,196.513247 L194.498191,199.759094 L194.530342,199.795464 C194.551145,199.817641 194.5502,199.839819 194.560602,199.852238 C194.569112,199.88506 194.58046,199.899253 194.577623,199.919656 C194.605046,200.020784 194.584242,200.121025 194.518049,200.215943 C194.518049,200.215943 194.515212,200.237233 194.501973,200.24433 L194.476441,200.266507 L194.438617,200.295781 C194.349728,200.363199 194.229634,200.39957 194.112377,200.391586 C194.054695,200.373844 194.019707,200.361425 193.975262,200.333925 C193.929873,200.313522 193.909069,200.288684 193.876918,200.254088 L190.951167,197.009128 L190.865116,196.91421 L186.890672,192.506281 C186.751666,192.350154 186.77247,192.109754 186.937008,191.977578 C187.11573,191.835645 187.371048,191.857822 187.510999,192.013949 L190.275994,195.07883 C190.271266,194.181986 190.681666,193.287804 191.468422,192.665957 C192.896309,191.525165 194.920883,191.555326 196.132223,192.893938 L199.057973,196.141559 C199.19698,196.296799 199.17523,196.536312 198.998399,196.676471 C198.832916,196.808647 198.576653,196.787357 198.437646,196.633004 L195.511896,193.389819 Z" id="Fill-63" fill="#FEFEFE"></path>
                        <path d="M205.166588,190.016498 C206.311735,188.891674 206.214336,187.000407 204.906543,185.833889 C203.596858,184.66471 201.570393,184.654065 200.428083,185.784212 C199.283882,186.909924 199.391683,188.809175 200.699476,189.978353 C202.008215,191.145758 204.024279,191.143097 205.166588,190.016498 M199.862602,185.277687 C201.335879,183.82464 203.857849,183.865446 205.454057,185.293654 C207.053102,186.719201 207.218585,189.080623 205.745308,190.534556 C204.281487,191.974296 201.74817,191.946797 200.151016,190.516814 C198.554809,189.093042 198.398781,186.722749 199.862602,185.277687" id="Fill-65" fill="#FEFEFE"></path>
                        <path d="M209.938569,183.751456 C209.889396,183.557184 210.016109,183.354928 210.24495,183.306139 C210.917286,183.12606 211.885602,182.767678 212.514439,182.004784 C212.902144,181.540838 213.078975,181.02278 213.066682,180.581012 C213.10167,180.132146 212.946588,179.763119 212.659119,179.551992 C212.347064,179.345301 212.046357,179.303608 211.517755,179.410946 C211.095063,179.515622 210.581591,179.830537 209.990578,180.345047 L209.956535,180.357466 C209.404293,180.823186 208.876637,181.206407 208.330068,181.358986 C207.779717,181.570112 207.138586,181.531967 206.641189,181.170036 C206.129609,180.801009 205.910225,180.203113 205.923463,179.603443 C205.957506,179.057885 206.202421,178.43249 206.711165,177.819514 C207.350405,177.043314 208.187279,176.765656 208.887984,176.527917 C209.103586,176.472918 209.33148,176.576707 209.404293,176.76743 C209.477106,176.958154 209.363631,177.172828 209.161268,177.238473 C208.480422,177.453148 207.786336,177.658064 207.299341,178.245315 C206.892724,178.737648 206.711165,179.23619 206.719676,179.655781 C206.727241,180.052308 206.875703,180.379643 207.138586,180.568592 C207.401468,180.759316 207.673807,180.783267 208.064348,180.691897 C208.484204,180.565044 208.975927,180.27408 209.525332,179.788844 L209.54519,179.764893 C210.116345,179.252157 210.684663,178.923048 211.278513,178.687084 C211.878982,178.494586 212.610893,178.574424 213.146114,178.962967 C213.684172,179.352398 213.881807,179.950294 213.873296,180.594318 C213.856275,181.253422 213.631217,181.873495 213.144223,182.464294 C212.327206,183.425895 211.213265,183.834842 210.386793,184.020243 C210.168354,184.056613 209.988686,183.947502 209.938569,183.751456" id="Fill-67" fill="#FEFEFE"></path>
                        <path d="M212.765312,170.417405 C212.931742,170.517646 212.991316,170.775788 212.882569,170.931915 L212.314251,171.751582 L217.273086,174.778318 C217.605945,174.979687 217.988921,174.769447 218.098613,174.61332 C218.204523,174.456306 218.504284,174.396871 218.671659,174.497999 C218.838088,174.600014 218.886315,174.871462 218.77946,175.029363 C218.336909,175.667178 217.501926,175.845482 216.822025,175.427665 L211.862245,172.402703 L211.310948,173.200193 C211.095346,173.51156 210.928917,173.411319 210.761542,173.30753 C210.595113,173.207289 210.426793,173.106162 210.644285,172.79302 L211.195582,171.997305 L208.666992,170.45555 C208.499618,170.353535 208.440989,170.097167 208.54879,169.939266 C208.667938,169.77072 208.951624,169.701527 209.118054,169.802655 L211.646643,171.34441 L212.216852,170.524742 C212.324653,170.368615 212.598883,170.311842 212.765312,170.417405" id="Fill-69" fill="#FEFEFE"></path>
                        <path d="M215.174092,166.683661 C214.972675,166.57455 214.918774,166.34923 215.02563,166.174474 C215.139104,165.983751 215.373618,165.912784 215.575035,166.018347 L221.951355,169.417659 C222.138588,169.516126 222.206673,169.748542 222.091307,169.939266 C221.986343,170.114022 221.736699,170.179666 221.549467,170.0812 L215.174092,166.683661 Z M212.866778,165.4515 C212.678599,165.351259 212.609569,165.117068 212.715478,164.942312 C212.83179,164.751589 213.081433,164.689493 213.268666,164.787959 L213.599634,164.966264 C213.801051,165.074488 213.88332,165.314888 213.7689,165.505612 C213.662045,165.680368 213.401053,165.738028 213.19869,165.630691 L212.866778,165.4515 Z" id="Fill-71" fill="#FEFEFE"></path>
                        <path d="M223.079386,158.08656 C221.830221,157.546324 220.340869,158.048415 219.757421,159.235335 C219.179647,160.411611 219.738508,161.7999 220.974435,162.369409 L224.981029,164.100113 L225.040603,164.1285 C225.095449,164.169306 225.147459,164.207451 225.172045,164.268659 C225.234456,164.363578 225.231619,164.486883 225.183392,164.581801 L225.141785,164.666961 C225.063298,164.75567 224.94415,164.808895 224.833513,164.810669 C224.811763,164.817766 224.796633,164.810669 224.782449,164.803572 C224.766373,164.79825 224.744624,164.805346 224.744624,164.805346 L224.653845,164.763653 L220.649141,163.032949 L220.528102,162.981498 L218.012751,161.89127 C217.817007,161.807884 217.720554,161.593209 217.817953,161.395389 C217.908732,161.213536 218.144192,161.14257 218.33899,161.225956 L219.046314,161.536436 C218.649153,160.746042 218.610383,159.786216 219.033075,158.923081 C219.799028,157.370681 221.771593,156.697383 223.41319,157.4106 L227.418839,159.143079 C227.630658,159.233561 227.704417,159.453559 227.614583,159.638959 C227.523803,159.82436 227.295909,159.914843 227.087872,159.820812 L223.079386,158.08656 Z" id="Fill-73" fill="#FEFEFE"></path>
                        <path d="M228.015715,147.574949 C226.305087,147.042698 224.524484,147.827769 223.999664,149.318073 C223.476736,150.792409 224.402499,152.422872 226.115963,152.954237 C227.844558,153.493585 229.639346,152.710288 230.160383,151.234178 C230.687094,149.747422 229.746201,148.110749 228.015715,147.574949 L228.015715,147.574949 Z M231.536261,147.881881 C233.532466,148.503728 234.615202,150.525396 233.946648,152.410453 C233.759415,152.944479 233.442632,153.403102 233.055873,153.802291 C232.893227,153.917612 232.641692,153.937128 232.499848,153.795194 C232.325854,153.640841 232.321126,153.411973 232.493229,153.268265 C232.811903,152.957785 233.038852,152.619805 233.19488,152.179811 C233.724427,150.672652 232.873369,149.085656 231.285672,148.590662 L230.343833,148.298811 C231.055886,149.191219 231.288508,150.357737 230.897021,151.466594 C230.23225,153.351651 227.987347,154.324784 225.865374,153.663018 C223.790682,153.01722 222.576505,150.968939 223.244113,149.083882 C223.6356,147.976799 224.582167,147.176648 225.70651,146.857297 L224.575547,146.504237 C224.371293,146.440367 224.255927,146.225692 224.326849,146.015453 C224.391151,145.840697 224.621883,145.729811 224.824245,145.795455 L231.536261,147.881881 Z" id="Fill-75" fill="#FEFEFE"></path>
                        <path d="M26.5214447,119.498333 C26.5214447,121.999915 24.3607014,124.026019 21.6949968,124.026019 C19.0292921,124.026019 16.8685489,121.999915 16.8685489,119.498333 C16.8685489,116.998526 19.0292921,114.971535 21.6949968,114.971535 C24.3607014,114.971535 26.5214447,116.998526 26.5214447,119.498333" id="Fill-77" fill="#FEFEFE"></path>
                        <path d="M131.226712,195.694201 C134.043716,195.694201 134.043716,191.596753 131.226712,191.596753 C128.408762,191.596753 128.408762,195.694201 131.226712,195.694201" id="Fill-79" fill="#FEFEFE"></path>
                        <path d="M233.185234,119.498333 C233.185234,121.999915 231.024491,124.026019 228.357841,124.026019 C225.693082,124.026019 223.53423,121.999915 223.53423,119.498333 C223.53423,116.998526 225.693082,114.971535 228.357841,114.971535 C231.024491,114.971535 233.185234,116.998526 233.185234,119.498333" id="Fill-81" fill="#FEFEFE"></path>
                        <path d="M75.7888489,178.867251 C46.6835903,157.918723 35.9110796,121.629823 49.2585154,89.5820792 C61.4702607,60.2647852 93.15139,41.7938876 126.23582,42.1478348 C159.659728,42.5088787 189.351272,63.6525653 200.682644,92.7463137 C212.287301,122.54086 201.449543,156.228825 176.044498,176.520022 C164.942911,185.385556 151.150088,190.870407 136.849467,193.122717 C135.775242,193.294812 136.231976,194.825922 137.297691,194.658263 C165.342909,190.231705 190.192874,172.496202 200.823542,147.491918 C211.833403,121.577485 207.507189,92.3284964 189.369239,70.2347409 C171.887549,48.9420239 143.16905,38.3165118 114.926197,41.0425261 C86.8601757,43.7525728 62.307135,60.883971 49.8892444,84.3562575 C32.3423072,117.527052 44.1152846,158.055334 74.9340078,180.239572 C75.8011419,180.861419 76.6427443,179.482001 75.7888489,178.867251" id="Fill-83" fill="#FEFEFE"></path>
                        <path d="M126.643572,194.290743 C128.230323,194.290743 128.230323,191.980772 126.643572,191.980772 C125.055875,191.980772 125.055875,194.290743 126.643572,194.290743" id="Fill-85" fill="#FEFEFE"></path>
                        <g id="Fill-87">
                            <use fill="black" fill-opacity="1" filter="url(#filter-4)" xlink:href="#path-3"></use>
                            <use fill="#FEFEFE" fill-rule="evenodd" xlink:href="#path-3"></use>
                        </g>
                        <g id="Fill-89">
                            <use fill="black" fill-opacity="1" filter="url(#filter-6)" xlink:href="#path-5"></use>
                            <use fill="#FEFEFE" fill-rule="evenodd" xlink:href="#path-5"></use>
                        </g>
                        <g id="Fill-1">
                            <use fill="black" fill-opacity="1" filter="url(#filter-8)" xlink:href="#path-7"></use>
                            <use fill="#FEFEFE" fill-rule="evenodd" xlink:href="#path-7"></use>
                        </g>
                    </g>
                    <path d="M120.711531,192.667815 C122.101673,192.733894 123.501019,192.767335 124.90871,192.767335 C169.865341,192.767335 206.309892,158.659696 206.309892,116.585791 C206.309892,74.511886 169.865341,40.404247 124.90871,40.404247 C79.9520786,40.404247 43.5075282,74.511886 43.5075282,116.585791 C43.5075282,143.385359 58.2939314,166.952828 80.6481165,180.53245 L81.0859495,180.226393 L82.1728154,179.055696 L83.9340041,179.055696 L85.7208911,179.055696 L87.6345562,179.461933 L89.4995659,179.632586 L90.7951018,180.226393 L91.9528949,180.226393 L92.9729453,180.207953 L93.8826643,179.461933 L94.6268865,178.523101 L95.5811492,177.685851 L96.0077406,177.583621 L96.4096617,176.902059 L97.5904119,175.965375 L99.0493889,174.438973 L100.435725,173.092148 L101.964259,172.037135 L103.622997,170.743275 L104.925729,169.531398 L106.14417,168.322756 L107.252279,167.399451 L108.795547,166.043611 L109.544908,165.45126 L110.315172,164.477279 L111.6227,164.477279 L113.037818,165.45126 L113.66143,166.334772 L113.66143,167.399451 L112.579361,168.322756 L111.12107,170.743275 L109.921474,172.742615 L108.29049,175.078074 L106.558426,177.685851 L104.630027,181.723285 L104.160605,183.571835 L106.558426,184.294524 L117.173871,187.547801 L118.174733,186.909188 L120.036659,185.142811 L122.253564,182.829697 L123.813278,182.419807 L125.398348,183.571835 L124.517411,185.142811 L123.188639,186.909188 L122.253564,188.85032 L122.678442,190.914595 L122.253564,192.043577 L120.711531,192.667815 Z M124.206976,233.485057 C55.6093572,233.485057 0,181.441504 0,117.242529 C0,53.0435527 55.6093572,1 124.206976,1 C192.804594,1 248.413951,53.0435527 248.413951,117.242529 C248.413951,181.441504 192.804594,233.485057 124.206976,233.485057 Z" id="Combined-Shape" opacity="0.376923974"></path>
                </g>
            </g>
        </g>
    </g>
</svg>