
<svg width="217px" height="31px" viewBox="0 0 217 31" version="1.1" xmlns="http://www.w3.org/2000/svg" xmlns:xlink="http://www.w3.org/1999/xlink">
    <!-- Generator: Sketch 43.1 (39012) - http://www.bohemiancoding.com/sketch -->
    <desc>Created with Sketch.</desc>
    <defs>
        <polygon id="path-1" points="0.000175850892 30.8317898 216.649353 30.8317898 216.649353 0.000176136363 0.000175850892 0.000176136363 0.000175850892 30.8317898"></polygon>
    </defs>
    <g id="Welcome" stroke="none" stroke-width="1" fill="none" fill-rule="evenodd">
        <g id="Desktop-Home" transform="translate(-56.000000, -2789.000000)">
            <g id="footer" transform="translate(0.000000, 2714.000000)">
                <g id="small-logo" transform="translate(56.000000, 75.000000)">
                    <mask id="mask-2" fill="white">
                        <use xlink:href="#path-1"></use>
                    </mask>
                    <g id="Clip-2"></g>
                    <path d="M197.987177,20.055133 C197.987177,24.8051784 201.72014,28.6315648 206.243377,28.6315648 C210.809521,28.6315648 214.498873,24.8051784 214.498873,20.055133 C214.498873,15.2614057 210.809521,11.3902807 206.243377,11.3902807 C201.807011,11.3902807 198.163028,15.0859739 197.987177,19.7042693 L197.987177,20.055133 Z M195.835818,20.4958261 L195.835818,20.055133 L195.835818,19.6154966 L195.835818,1.05495114 C195.835818,0.482860227 196.318353,-0.000105681818 196.889868,-0.000105681818 C197.504643,-0.000105681818 197.987177,0.482860227 197.987177,1.05495114 L197.987177,13.4581216 C199.875464,10.9073148 202.860709,9.23542841 206.243377,9.23542841 C212.038367,9.23542841 216.649529,14.0738943 216.649529,20.055133 C216.649529,25.949008 212.038367,30.7874739 206.243377,30.7874739 C202.860709,30.7874739 199.875464,29.1603261 197.987177,26.6088148 L197.987177,29.7317125 C197.987177,30.3041557 197.504643,30.7874739 196.889868,30.7874739 C196.318353,30.7874739 195.835818,30.3041557 195.835818,29.7317125 L195.835818,20.4958261 Z M189.732737,18.0320307 C189.732737,14.3817807 186.790751,11.3902807 183.102455,11.3902807 C179.457066,11.3902807 176.516135,14.3817807 176.427858,18.0320307 L176.427858,29.7317125 L176.427858,29.9082011 C176.383544,30.0843375 176.339933,30.259417 176.208396,30.391167 C176.032545,30.654667 175.725158,30.7874739 175.417771,30.7874739 L175.154698,30.7874739 C174.846255,30.6990534 174.583182,30.4792352 174.451646,30.2160875 C174.407331,30.1713489 174.407331,30.1280193 174.407331,30.0843375 C174.407331,30.0395989 174.36372,29.9962693 174.36372,29.9962693 L174.36372,29.7317125 L174.36372,18.0320307 L174.36372,17.681167 L174.36372,10.3348716 C174.36372,9.76313295 174.803699,9.27981477 175.417771,9.27981477 C175.988934,9.27981477 176.427858,9.76313295 176.427858,10.3348716 L176.427858,12.4023602 C178.008758,10.5117125 180.42319,9.27981477 183.102455,9.27981477 C187.932727,9.27981477 191.840485,13.2383034 191.840485,18.0320307 L191.840485,29.7317125 C191.840485,30.3478375 191.358302,30.7874739 190.786787,30.7874739 C190.216327,30.7874739 189.732737,30.3478375 189.732737,29.7317125 L189.732737,18.0320307 Z M152.918704,20.055133 C152.918704,24.8051784 156.650964,28.6315648 161.174904,28.6315648 C165.742103,28.6315648 169.430048,24.8051784 169.430048,20.055133 C169.430048,15.2614057 165.742103,11.3902807 161.174904,11.3902807 C156.738889,11.3902807 153.094555,15.0859739 152.918704,19.7042693 L152.918704,20.055133 Z M150.766641,20.4958261 L150.766641,20.055133 L150.766641,19.6154966 L150.766641,1.05495114 C150.766641,0.482860227 151.250934,-0.000105681818 151.821395,-0.000105681818 C152.436169,-0.000105681818 152.918704,0.482860227 152.918704,1.05495114 L152.918704,13.4581216 C154.808398,10.9073148 157.793994,9.23542841 161.174904,9.23542841 C166.971301,9.23542841 171.582111,14.0738943 171.582111,20.055133 C171.582111,25.949008 166.971301,30.7874739 161.174904,30.7874739 C157.793994,30.7874739 154.808398,29.1603261 152.918704,26.6088148 L152.918704,29.7317125 C152.918704,30.3041557 152.436169,30.7874739 151.821395,30.7874739 C151.250934,30.7874739 150.766641,30.3041557 150.766641,29.7317125 L150.766641,20.4958261 Z M145.587129,17.944667 C145.587129,13.6779398 142.161905,10.3348716 138.035036,10.3348716 C133.906761,10.3348716 130.436519,13.6779398 130.436519,17.944667 L130.436519,30.2160875 C130.436519,30.3478375 130.393964,30.4792352 130.306038,30.5676557 C130.217058,30.6990534 130.086576,30.7874739 129.90967,30.7874739 L129.8228,30.7874739 L129.734874,30.7874739 C129.690208,30.743792 129.647301,30.743792 129.603338,30.6990534 C129.559375,30.6990534 129.515412,30.654667 129.47145,30.612042 C129.427135,30.5676557 129.427135,30.5676557 129.427135,30.5239739 C129.383524,30.4792352 129.339913,30.391167 129.339913,30.3041557 L129.339913,30.2160875 L129.339913,17.944667 L129.339913,17.592042 L129.339913,9.76313295 C129.339913,9.41226932 129.603338,9.23542841 129.90967,9.23542841 C130.217058,9.23542841 130.436519,9.41226932 130.436519,9.76313295 L130.436519,13.7226784 C131.931252,11.039417 134.784609,9.23542841 138.035036,9.23542841 C142.77668,9.23542841 146.685494,13.1062011 146.685494,17.944667 L146.685494,30.2160875 C146.685494,30.5239739 146.421717,30.7874739 146.11433,30.7874739 C145.762276,30.7874739 145.587129,30.5239739 145.587129,30.2160875 L145.587129,17.944667 Z M107.507322,18.824292 L126.038489,18.824292 C125.468028,14.0291557 121.515252,10.3796102 116.81722,10.3796102 C112.030558,10.3796102 108.078837,14.0291557 107.507322,18.824292 L107.507322,18.824292 Z M106.366401,20.0114511 C106.453623,14.0291557 111.064785,9.23542841 116.81722,9.23542841 C122.305878,9.23542841 126.741189,13.5902239 127.136502,19.175508 L127.136502,19.2198943 L127.136502,19.3076102 L127.136502,19.3519966 C127.092187,19.6154966 126.872725,19.8800534 126.609652,19.8800534 L107.463711,19.8800534 L107.463711,20.0114511 C107.463711,25.290258 111.635949,29.6436443 116.81722,29.6880307 C120.066944,29.6880307 122.921004,27.9287807 124.545515,25.290258 C124.720662,25.0260534 125.028049,25.0260534 125.335437,25.1578034 C125.554899,25.290258 125.643879,25.6407693 125.468028,25.9053261 C123.624056,28.7643716 120.416887,30.7874739 116.81722,30.7874739 C111.064785,30.6990534 106.453623,25.9053261 106.366401,20.0114511 L106.366401,20.0114511 Z M85.6673444,18.824292 L104.197808,18.824292 C103.627348,14.0291557 99.674923,10.3796102 94.9768906,10.3796102 C90.1898776,10.3796102 86.237453,14.0291557 85.6673444,18.824292 L85.6673444,18.824292 Z M84.5253687,20.0114511 C84.6132942,14.0291557 89.2230494,9.23542841 94.9768906,9.23542841 C100.464845,9.23542841 104.90086,13.5902239 105.295118,19.175508 L105.295118,19.2198943 L105.295118,19.3076102 L105.295118,19.3519966 C105.251858,19.6154966 105.032045,19.8800534 104.768268,19.8800534 L85.6226783,19.8800534 L85.6226783,20.0114511 C85.6226783,25.290258 89.7945648,29.6436443 94.9768906,29.6880307 C98.22556,29.6880307 101.080675,27.9287807 102.70413,25.290258 C102.881036,25.0260534 103.187369,25.0260534 103.495108,25.1578034 C103.71457,25.290258 103.802495,25.6407693 103.627348,25.9053261 C101.782672,28.7643716 98.5776135,30.7874739 94.9768906,30.7874739 C89.2230494,30.6990534 84.6132942,25.9053261 84.5253687,20.0114511 L84.5253687,20.0114511 Z M75.0818241,30.654667 C75.0375097,30.612042 74.9938987,30.5676557 74.9938987,30.5239739 C74.9938987,30.5239739 74.9495843,30.5239739 74.9495843,30.4792352 L74.9495843,30.4359057 L69.1531872,16.6243489 L63.3567901,30.4359057 C63.2688647,30.612042 63.1373282,30.743792 62.9614773,30.7874739 L62.7863298,30.7874739 L62.6984044,30.7874739 C62.6547934,30.7874739 62.5668679,30.743792 62.4778874,30.6990534 C62.347406,30.612042 62.2594806,30.4792352 62.2594806,30.3478375 L53.7402083,10.0720761 C53.6086718,9.80787159 53.7402083,9.45524659 54.0475956,9.36753068 C54.3117237,9.23542841 54.662722,9.36753068 54.7942585,9.63173523 L62.8299408,28.808758 L68.5827269,15.0859739 C68.6710041,14.8658034 68.9337253,14.7337011 69.1978533,14.7784398 C69.4173152,14.7784398 69.592111,14.909133 69.7247026,15.0859739 L75.4764335,28.808758 L83.5574854,9.63173523 C83.6443558,9.36753068 83.9520948,9.23542841 84.2594822,9.36753068 C84.5225551,9.45524659 84.698406,9.80787159 84.5668695,10.0720761 L76.0032828,30.4359057 C76.0032828,30.5239739 75.9164125,30.612042 75.8281353,30.654667 C75.6958955,30.743792 75.6086734,30.7874739 75.520748,30.7874739 C75.3892115,30.7874739 75.3448971,30.7874739 75.2569716,30.743792 C75.1690462,30.743792 75.1254352,30.6990534 75.0818241,30.654667 L75.0818241,30.654667 Z M51.3697382,9.80787159 C51.3697382,10.1150534 51.1056102,10.3348716 50.7985746,10.3348716 L47.2857771,10.3348716 L47.2857771,27.4891443 C47.2857771,28.7206898 48.2962164,29.7317125 49.5254141,29.7317125 C49.8324498,29.7317125 50.0962261,29.9515307 50.0962261,30.259417 C50.0962261,30.5676557 49.8324498,30.8318602 49.5254141,30.8318602 C47.6807382,30.8318602 46.1881159,29.3368148 46.1881159,27.4891443 L46.1881159,10.3348716 L42.4998193,10.3348716 C42.1920802,10.3348716 41.9283039,10.1150534 41.9283039,9.80787159 C41.9283039,9.49963295 42.1920802,9.23542841 42.4998193,9.23542841 L46.1881159,9.23542841 L46.1881159,0.615314773 C46.1881159,0.307428409 46.4072261,0.0428715909 46.7149652,0.0428715909 C47.0227042,0.0428715909 47.2857771,0.307428409 47.2857771,0.615314773 L47.2857771,9.23542841 L50.7985746,9.23542841 C51.1056102,9.23542841 51.3697382,9.49963295 51.3697382,9.80787159 L51.3697382,9.80787159 Z M23.3461402,18.824292 L41.8769554,18.824292 C41.3061434,14.0291557 37.3540705,10.3796102 32.6556864,10.3796102 C27.8693768,10.3796102 23.9169522,14.0291557 23.3461402,18.824292 L23.3461402,18.824292 Z M22.2048679,20.0114511 C22.2924417,14.0291557 26.903252,9.23542841 32.6556864,9.23542841 C38.1450478,9.23542841 42.5793039,13.5902239 42.9753201,19.175508 L42.9753201,19.2198943 L42.9753201,19.3076102 L42.9753201,19.3519966 C42.9310057,19.6154966 42.7115438,19.8800534 42.4484708,19.8800534 L23.3025292,19.8800534 L23.3025292,20.0114511 C23.3025292,25.290258 27.4747674,29.6436443 32.6556864,29.6880307 C35.9050592,29.6880307 38.7594708,27.9287807 40.3843331,25.290258 C40.5598323,25.0260534 40.8665162,25.0260534 41.1742553,25.1578034 C41.3937172,25.290258 41.4819943,25.6407693 41.3061434,25.9053261 C39.4625227,28.7643716 36.2557058,30.7874739 32.6556864,30.7874739 C26.903252,30.6990534 22.2924417,25.9053261 22.2048679,20.0114511 L22.2048679,20.0114511 Z M1.09783712,19.967417 C1.09783712,25.332883 5.31333468,29.6880307 10.3627172,29.6880307 C15.5007285,29.6880307 19.7162261,25.332883 19.7162261,19.967417 C19.7162261,14.6463375 15.5007285,10.3348716 10.3627172,10.3348716 C5.44487115,10.3348716 1.2733363,14.4258148 1.09783712,19.5718148 L1.09783712,19.967417 Z M0.000175850892,20.4958261 L0.000175850892,19.967417 L0.000175850892,19.5274284 L0.000175850892,0.658292045 C0.000175850892,0.350757955 0.219637763,-0.000105681818 0.570636143,-0.000105681818 C0.834060778,-0.000105681818 1.09783712,0.350757955 1.09783712,0.658292045 L1.09783712,15.1733375 C2.8106248,11.6548375 6.3234222,9.23542841 10.3627172,9.23542841 C16.159466,9.23542841 20.8142391,14.0738943 20.8142391,19.967417 C20.8142391,25.9053261 16.159466,30.7874739 10.3627172,30.7874739 C6.3234222,30.7874739 2.8106248,28.368417 1.09783712,24.8932466 L1.09783712,30.2160875 C1.09783712,30.5239739 0.834060778,30.7874739 0.570636143,30.7874739 C0.219637763,30.7874739 0.000175850892,30.5239739 0.000175850892,30.2160875 L0.000175850892,20.4958261 Z" id="Fill-1" fill="#FEFEFE" mask="url(#mask-2)"></path>
                </g>
            </g>
        </g>
    </g>
</svg>